<svg width="1490" height="2996" viewBox="0 0 1490 2996" fill="none" xmlns="http://www.w3.org/2000/svg">
<path fill-rule="evenodd" clip-rule="evenodd" d="M357.82 55H1133.18C1238.26 55 1276.39 65.8702 1314.81 86.4188C1353.08 106.885 1383.11 136.918 1403.58 175.187C1424.13 213.61 1435 251.742 1435 356.82V2641.18C1435 2746.26 1424.13 2784.39 1403.58 2822.81C1383.11 2861.08 1353.08 2891.11 1314.81 2911.58C1276.39 2932.13 1238.26 2943 1133.18 2943H357.82C252.742 2943 214.61 2932.13 176.187 2911.58C137.918 2891.11 107.885 2861.08 87.4188 2822.81C66.8702 2784.39 56 2746.26 56 2641.18V356.82C56 251.742 66.8702 213.61 87.4188 175.187C107.885 136.918 137.918 106.885 176.187 86.4188C214.61 65.8702 252.742 55 357.82 55ZM1143.87 98H346.133C259.981 98 228.768 107.041 197.28 123.881C165.637 140.804 140.804 165.637 123.881 197.28C107.041 228.768 98 259.981 98 346.133V2649.87C98 2736.02 107.041 2767.23 123.881 2798.72C140.804 2830.36 165.637 2855.2 197.28 2872.12C228.768 2888.96 259.981 2898 346.133 2898H1143.87C1230.02 2898 1261.23 2888.96 1292.72 2872.12C1324.36 2855.2 1349.2 2830.36 1366.12 2798.72C1382.96 2767.23 1392 2736.02 1392 2649.87V346.133C1392 259.981 1382.96 228.768 1366.12 197.28C1349.2 165.637 1324.36 140.804 1292.72 123.881C1261.23 107.041 1230.02 98 1143.87 98Z" stroke="url(#paint0_linear_1_432)" stroke-width="4"/>
<path fill-rule="evenodd" clip-rule="evenodd" d="M357.82 54.5H1133.18C1238.4 54.5 1276.58 65.4026 1315.05 85.9779C1353.41 106.491 1383.51 136.594 1404.02 174.951C1424.6 213.424 1435.5 251.6 1435.5 356.82V2641.18C1435.5 2746.4 1424.6 2784.58 1404.02 2823.05C1383.51 2861.41 1353.41 2891.51 1315.05 2912.02C1276.58 2932.6 1238.4 2943.5 1133.18 2943.5H357.82C252.6 2943.5 214.424 2932.6 175.951 2912.02C137.594 2891.51 107.491 2861.41 86.9779 2823.05C66.4026 2784.58 55.5 2746.4 55.5 2641.18V356.82C55.5 251.6 66.4026 213.424 86.9779 174.951C107.491 136.594 137.594 106.491 175.951 85.9779C214.424 65.4026 252.6 54.5 357.82 54.5ZM1143.87 98.5H346.133C260.122 98.5 228.954 107.509 197.515 124.322C165.961 141.197 141.197 165.961 124.322 197.515C107.509 228.954 98.5 260.122 98.5 346.133V2649.87C98.5 2735.88 107.509 2767.05 124.322 2798.48C141.197 2830.04 165.961 2854.8 197.515 2871.68C228.954 2888.49 260.122 2897.5 346.133 2897.5H1143.87C1229.88 2897.5 1261.05 2888.49 1292.48 2871.68C1324.04 2854.8 1348.8 2830.04 1365.68 2798.48C1382.49 2767.05 1391.5 2735.88 1391.5 2649.87V346.133C1391.5 260.122 1382.49 228.954 1365.68 197.515C1348.8 165.961 1324.04 141.197 1292.48 124.322C1261.05 107.509 1229.88 98.5 1143.87 98.5Z" stroke="url(#paint1_linear_1_432)" stroke-width="3"/>
<path fill-rule="evenodd" clip-rule="evenodd" d="M357.82 54H1133.18C1238.54 54 1276.76 64.935 1315.28 85.537C1353.73 106.098 1383.9 136.27 1404.46 174.715C1425.07 213.238 1436 251.459 1436 356.82V2641.18C1436 2746.54 1425.07 2784.76 1404.46 2823.28C1383.9 2861.73 1353.73 2891.9 1315.28 2912.46C1276.76 2933.06 1238.54 2944 1133.18 2944H357.82C252.459 2944 214.238 2933.06 175.715 2912.46C137.27 2891.9 107.098 2861.73 86.537 2823.28C65.935 2784.76 55 2746.54 55 2641.18V356.82C55 251.459 65.935 213.238 86.537 174.715C107.098 136.27 137.27 106.098 175.715 85.537C214.238 64.935 252.459 54 357.82 54ZM1143.87 99H346.133C260.264 99 229.14 107.976 197.751 124.763C166.285 141.591 141.591 166.285 124.763 197.751C107.976 229.14 99 260.264 99 346.133V2649.87C99 2735.74 107.976 2766.86 124.763 2798.25C141.591 2829.71 166.285 2854.41 197.751 2871.24C229.14 2888.02 260.264 2897 346.133 2897H1143.87C1229.74 2897 1260.86 2888.02 1292.25 2871.24C1323.71 2854.41 1348.41 2829.71 1365.24 2798.25C1382.02 2766.86 1391 2735.74 1391 2649.87V346.133C1391 260.264 1382.02 229.14 1365.24 197.751C1348.41 166.285 1323.71 141.591 1292.25 124.763C1260.86 107.976 1229.74 99 1143.87 99Z" stroke="url(#paint2_linear_1_432)" stroke-width="2"/>
<path fill-rule="evenodd" clip-rule="evenodd" d="M357.82 53.5H1133.18C1238.68 53.5 1276.95 64.4674 1315.52 85.0961C1354.05 105.704 1384.3 135.946 1404.9 174.48C1425.53 213.052 1436.5 251.317 1436.5 356.82V2641.18C1436.5 2746.68 1425.53 2784.95 1404.9 2823.52C1384.3 2862.05 1354.05 2892.3 1315.52 2912.9C1276.95 2933.53 1238.68 2944.5 1133.18 2944.5H357.82C252.317 2944.5 214.052 2933.53 175.48 2912.9C136.946 2892.3 106.704 2862.05 86.0961 2823.52C65.4674 2784.95 54.5 2746.68 54.5 2641.18V356.82C54.5 251.317 65.4674 213.052 86.0961 174.48C106.704 135.946 136.946 105.704 175.48 85.0961C214.052 64.4674 252.317 53.5 357.82 53.5ZM1143.87 99.5H346.133C260.406 99.5 229.326 108.444 197.987 125.204C166.61 141.985 141.985 166.61 125.204 197.987C108.444 229.326 99.5 260.406 99.5 346.133V2649.87C99.5 2735.59 108.444 2766.67 125.204 2798.01C141.985 2829.39 166.61 2854.02 197.987 2870.8C229.326 2887.56 260.406 2896.5 346.133 2896.5H1143.87C1229.59 2896.5 1260.67 2887.56 1292.01 2870.8C1323.39 2854.02 1348.02 2829.39 1364.8 2798.01C1381.56 2766.67 1390.5 2735.59 1390.5 2649.87V346.133C1390.5 260.406 1381.56 229.326 1364.8 197.987C1348.02 166.61 1323.39 141.985 1292.01 125.204C1260.67 108.444 1229.59 99.5 1143.87 99.5Z" stroke="url(#paint3_linear_1_432)"/>
<mask id="mask0_1_432" style="mask-type:luminance" maskUnits="userSpaceOnUse" x="54" y="53" width="1383" height="2892">
<path d="M1133.18 53C1238.82 53 1277.13 63.9998 1315.76 84.6552C1354.38 105.311 1384.69 135.622 1405.34 174.244C1426 212.866 1437 251.175 1437 356.82V2641.18C1437 2746.82 1426 2785.13 1405.34 2823.76C1384.69 2862.38 1354.38 2892.69 1315.76 2913.34C1277.13 2934 1238.82 2945 1133.18 2945H357.82C252.175 2945 213.866 2934 175.244 2913.34C136.622 2892.69 106.311 2862.38 85.6552 2823.76C64.9998 2785.13 54 2746.82 54 2641.18V356.82C54 251.175 64.9998 212.866 85.6552 174.244C106.311 135.622 136.622 105.311 175.244 84.6552C213.866 63.9998 252.175 53 357.82 53L1133.18 53ZM1143.87 100H346.133C260.547 100 229.512 108.911 198.223 125.645C166.934 142.378 142.378 166.934 125.645 198.223C108.911 229.512 100 260.547 100 346.133V2649.87C100 2735.45 108.911 2766.49 125.645 2797.78C142.378 2829.07 166.934 2853.62 198.223 2870.36C229.512 2887.09 260.547 2896 346.133 2896H1143.87C1229.45 2896 1260.49 2887.09 1291.78 2870.36C1323.07 2853.62 1347.62 2829.07 1364.36 2797.78C1381.09 2766.49 1390 2735.45 1390 2649.87V346.133C1390 260.547 1381.09 229.512 1364.36 198.223C1347.62 166.934 1323.07 142.378 1291.78 125.645C1260.49 108.911 1229.45 100 1143.87 100Z" fill="white"/>
</mask>
<g mask="url(#mask0_1_432)">
<path fill-rule="evenodd" clip-rule="evenodd" d="M355.257 55H1135.74C1239.93 55 1277.74 65.7773 1315.84 86.1517C1353.78 106.444 1383.56 136.221 1403.85 174.164C1424.22 212.261 1435 250.069 1435 354.257V2643.74C1435 2747.93 1424.22 2785.74 1403.85 2823.84C1383.56 2861.78 1353.78 2891.56 1315.84 2911.85C1277.74 2932.22 1239.93 2943 1135.74 2943H355.257C251.069 2943 213.261 2932.22 175.164 2911.85C137.221 2891.56 107.444 2861.78 87.1517 2823.84C66.7773 2785.74 56 2747.93 56 2643.74V354.257C56 250.069 66.7773 212.261 87.1517 174.164C107.444 136.221 137.221 106.444 175.164 86.1517C213.261 65.7773 251.069 55 355.257 55ZM373.257 69C267.937 69 229.773 80.0367 191.277 100.624C152.627 121.295 122.295 151.627 101.624 190.277C81.0367 228.773 70 266.937 70 372.257V2623.74C70 2729.06 81.0367 2767.23 101.624 2805.72C122.295 2844.37 152.627 2874.71 191.277 2895.38C229.773 2915.96 267.937 2927 373.257 2927H1117.74C1223.06 2927 1261.23 2915.96 1299.72 2895.38C1338.37 2874.71 1368.71 2844.37 1389.38 2805.72C1409.96 2767.23 1421 2729.06 1421 2623.74V372.257C1421 266.937 1409.96 228.773 1389.38 190.277C1368.71 151.627 1338.37 121.295 1299.72 100.624C1261.23 80.0367 1223.06 69 1117.74 69H373.257Z" stroke="url(#paint4_linear_1_432)" stroke-width="4"/>
<path fill-rule="evenodd" clip-rule="evenodd" d="M355.257 54.5H1135.74C1240.07 54.5 1277.93 65.3098 1316.07 85.7108C1354.1 106.05 1383.95 135.897 1404.29 173.928C1424.69 212.075 1435.5 249.928 1435.5 354.257V2643.74C1435.5 2748.07 1424.69 2785.93 1404.29 2824.07C1383.95 2862.1 1354.1 2891.95 1316.07 2912.29C1277.93 2932.69 1240.07 2943.5 1135.74 2943.5H355.257C250.928 2943.5 213.075 2932.69 174.928 2912.29C136.897 2891.95 107.05 2862.1 86.7108 2824.07C66.3098 2785.93 55.5 2748.07 55.5 2643.74V354.257C55.5 249.928 66.3098 212.075 86.7108 173.928C107.05 135.897 136.897 106.05 174.928 85.7108C213.075 65.3098 250.928 54.5 355.257 54.5ZM1117.74 69.5H373.257C268.078 69.5 229.959 80.5043 191.513 101.065C152.952 121.688 122.688 151.952 102.065 190.513C81.5043 228.959 70.5 267.078 70.5 372.257V2623.74C70.5 2728.92 81.5043 2767.04 102.065 2805.49C122.688 2844.05 152.952 2874.31 191.513 2894.93C229.959 2915.5 268.078 2926.5 373.257 2926.5H1117.74C1222.92 2926.5 1261.04 2915.5 1299.49 2894.93C1338.05 2874.31 1368.31 2844.05 1388.93 2805.49C1409.5 2767.04 1420.5 2728.92 1420.5 2623.74V372.257C1420.5 267.078 1409.5 228.959 1388.93 190.513C1368.31 151.952 1338.05 121.688 1299.49 101.065C1261.04 80.5043 1222.92 69.5 1117.74 69.5Z" stroke="url(#paint5_linear_1_432)" stroke-width="3"/>
<path fill-rule="evenodd" clip-rule="evenodd" d="M355.257 54H1135.74C1240.21 54 1278.11 64.8422 1316.31 85.2699C1354.43 105.656 1384.34 135.573 1404.73 173.692C1425.16 211.889 1436 249.786 1436 354.257V2643.74C1436 2748.21 1425.16 2786.11 1404.73 2824.31C1384.34 2862.43 1354.43 2892.34 1316.31 2912.73C1278.11 2933.16 1240.21 2944 1135.74 2944H355.257C250.786 2944 212.889 2933.16 174.692 2912.73C136.573 2892.34 106.656 2862.43 86.2699 2824.31C65.8422 2786.11 55 2748.21 55 2643.74V354.257C55 249.786 65.8422 211.889 86.2699 173.692C106.656 135.573 136.573 105.656 174.692 85.2699C212.889 64.8422 250.786 54 355.257 54ZM373.257 70C268.22 70 230.145 80.9718 191.749 101.506C153.276 122.082 123.082 152.276 102.506 190.749C81.9718 229.145 71 267.22 71 372.257V2623.74C71 2728.78 81.9718 2766.85 102.506 2805.25C123.082 2843.72 153.276 2873.92 191.749 2894.49C230.145 2915.03 268.22 2926 373.257 2926H1117.74C1222.78 2926 1260.85 2915.03 1299.25 2894.49C1337.72 2873.92 1367.92 2843.72 1388.49 2805.25C1409.03 2766.85 1420 2728.78 1420 2623.74V372.257C1420 267.22 1409.03 229.145 1388.49 190.749C1367.92 152.276 1337.72 122.082 1299.25 101.506C1260.85 80.9718 1222.78 70 1117.74 70H373.257Z" stroke="url(#paint6_linear_1_432)" stroke-width="2"/>
<path fill-rule="evenodd" clip-rule="evenodd" d="M1135.74 53.5C1240.36 53.5 1278.3 64.3746 1316.54 84.829C1354.75 105.263 1384.74 135.249 1405.17 173.456C1425.63 211.703 1436.5 249.645 1436.5 354.257V2643.74C1436.5 2748.36 1425.63 2786.3 1405.17 2824.54C1384.74 2862.75 1354.75 2892.74 1316.54 2913.17C1278.3 2933.63 1240.36 2944.5 1135.74 2944.5H355.257C250.645 2944.5 212.703 2933.63 174.456 2913.17C136.249 2892.74 106.263 2862.75 85.829 2824.54C65.3746 2786.3 54.5 2748.36 54.5 2643.74V354.257C54.5 249.645 65.3746 211.703 85.829 173.456C106.263 135.249 136.249 105.263 174.456 84.829C212.703 64.3746 250.645 53.5 355.257 53.5H1135.74ZM373.257 70.5C268.361 70.5 230.331 81.4394 191.985 101.947C153.6 122.476 123.476 152.6 102.947 190.985C82.4394 229.331 71.5 267.361 71.5 372.257V2623.74C71.5 2728.64 82.4394 2766.67 102.947 2805.02C123.476 2843.4 153.6 2873.52 191.985 2894.05C230.331 2914.56 268.361 2925.5 373.257 2925.5H1117.74C1222.64 2925.5 1260.67 2914.56 1299.02 2894.05C1337.4 2873.52 1367.52 2843.4 1388.05 2805.02C1408.56 2766.67 1419.5 2728.64 1419.5 2623.74V372.257C1419.5 267.361 1408.56 229.331 1388.05 190.985C1367.52 152.6 1337.4 122.476 1299.02 101.947C1260.67 81.4394 1222.64 70.5 1117.74 70.5H373.257Z" stroke="url(#paint7_linear_1_432)"/>
<mask id="mask1_1_432" style="mask-type:luminance" maskUnits="userSpaceOnUse" x="54" y="53" width="1383" height="2892">
<path d="M1135.74 53C1240.5 53 1278.48 63.907 1316.78 84.3881C1355.08 104.869 1385.13 134.924 1405.61 173.221C1426.09 211.517 1437 249.503 1437 354.257V2643.74C1437 2748.5 1426.09 2786.48 1405.61 2824.78C1385.13 2863.08 1355.08 2893.13 1316.78 2913.61C1278.48 2934.09 1240.5 2945 1135.74 2945H355.257C250.503 2945 212.517 2934.09 174.221 2913.61C135.924 2893.13 105.869 2863.08 85.3881 2824.78C64.907 2786.48 54 2748.5 54 2643.74L54 354.257C54 249.503 64.907 211.517 85.3881 173.221C105.869 134.924 135.924 104.869 174.221 84.3881C212.517 63.907 250.503 53 355.257 53L1135.74 53ZM373.257 71C268.503 71 230.517 81.907 192.221 102.388C153.924 122.869 123.869 152.924 103.388 191.221C82.907 229.517 72 267.503 72 372.257V2623.74C72 2728.5 82.907 2766.48 103.388 2804.78C123.869 2843.08 153.924 2873.13 192.221 2893.61C230.517 2914.09 268.503 2925 373.257 2925H1117.74C1222.5 2925 1260.48 2914.09 1298.78 2893.61C1337.08 2873.13 1367.13 2843.08 1387.61 2804.78C1408.09 2766.48 1419 2728.5 1419 2623.74V372.257C1419 267.503 1408.09 229.517 1387.61 191.221C1367.13 152.924 1337.08 122.869 1298.78 102.388C1260.48 81.907 1222.5 71 1117.74 71H373.257Z" fill="white"/>
</mask>
<g mask="url(#mask1_1_432)">
<path fill-rule="evenodd" clip-rule="evenodd" d="M359.384 81H1130.62C1234.32 81 1272.07 91.4443 1310.02 111.74C1347.2 131.624 1376.38 160.803 1396.26 197.983C1416.56 235.933 1427 273.68 1427 377.384V2641.62C1427 2745.32 1416.56 2783.07 1396.26 2821.02C1376.38 2858.2 1347.2 2887.38 1310.02 2907.26C1272.07 2927.56 1234.32 2938 1130.62 2938H359.384C255.68 2938 217.933 2927.56 179.983 2907.26C142.803 2887.38 113.624 2858.2 93.7405 2821.02C73.4443 2783.07 63 2745.32 63 2641.62V377.384C63 273.68 73.4443 235.933 93.7405 197.983C113.624 160.803 142.803 131.624 179.983 111.74C217.933 91.4443 255.68 81 359.384 81Z" stroke="#1A191D" stroke-width="20"/>
<path fill-rule="evenodd" clip-rule="evenodd" d="M359.384 80.5H1130.62C1234.46 80.5 1272.25 90.9767 1310.25 111.3C1347.52 131.231 1376.77 160.479 1396.7 197.747C1417.02 235.748 1427.5 273.538 1427.5 377.384V2641.62C1427.5 2745.46 1417.02 2783.25 1396.7 2821.25C1376.77 2858.52 1347.52 2887.77 1310.25 2907.7C1272.25 2928.02 1234.46 2938.5 1130.62 2938.5H359.384C255.538 2938.5 217.748 2928.02 179.747 2907.7C142.479 2887.77 113.231 2858.52 93.2996 2821.25C72.9767 2783.25 62.5 2745.46 62.5 2641.62V377.384C62.5 273.538 72.9767 235.748 93.2996 197.747C113.231 160.479 142.479 131.231 179.747 111.3C217.748 90.9767 255.538 80.5 359.384 80.5Z" stroke="#515052" stroke-width="19"/>
<path fill-rule="evenodd" clip-rule="evenodd" d="M359.384 80H1130.62C1234.6 80 1272.44 90.5092 1310.49 110.859C1347.85 130.837 1377.16 160.155 1397.14 197.511C1417.49 235.562 1428 273.397 1428 377.384V2641.62C1428 2745.6 1417.49 2783.44 1397.14 2821.49C1377.16 2858.85 1347.85 2888.16 1310.49 2908.14C1272.44 2928.49 1234.6 2939 1130.62 2939H359.384C255.397 2939 217.562 2928.49 179.511 2908.14C142.155 2888.16 112.837 2858.85 92.8587 2821.49C72.5092 2783.44 62 2745.6 62 2641.62V377.384C62 273.397 72.5092 235.562 92.8587 197.511C112.837 160.155 142.155 130.837 179.511 110.859C217.562 90.5092 255.397 80 359.384 80Z" stroke="#878788" stroke-width="18"/>
<path fill-rule="evenodd" clip-rule="evenodd" d="M359.384 79.5H1130.62C1234.75 79.5 1272.62 90.0416 1310.72 110.418C1348.17 130.444 1377.56 159.831 1397.58 197.276C1417.96 235.376 1428.5 273.255 1428.5 377.384V2641.62C1428.5 2745.75 1417.96 2783.62 1397.58 2821.72C1377.56 2859.17 1348.17 2888.56 1310.72 2908.58C1272.62 2928.96 1234.75 2939.5 1130.62 2939.5H359.384C255.255 2939.5 217.376 2928.96 179.276 2908.58C141.831 2888.56 112.444 2859.17 92.4178 2821.72C72.0416 2783.62 61.5 2745.75 61.5 2641.62V377.384C61.5 273.255 72.0416 235.376 92.4178 197.276C112.444 159.831 141.831 130.444 179.276 110.418C217.376 90.0416 255.255 79.5 359.384 79.5Z" stroke="#919192" stroke-width="17"/>
<path fill-rule="evenodd" clip-rule="evenodd" d="M359.384 79H1130.62C1234.89 79 1272.81 89.574 1310.96 109.977C1348.49 130.05 1377.95 159.506 1398.02 197.04C1418.43 235.19 1429 273.113 1429 377.384V2641.62C1429 2745.89 1418.43 2783.81 1398.02 2821.96C1377.95 2859.49 1348.49 2888.95 1310.96 2909.02C1272.81 2929.43 1234.89 2940 1130.62 2940H359.384C255.113 2940 217.19 2929.43 179.04 2909.02C141.506 2888.95 112.05 2859.49 91.9769 2821.96C71.574 2783.81 61 2745.89 61 2641.62V377.384C61 273.113 71.574 235.19 91.9769 197.04C112.05 159.506 141.506 130.05 179.04 109.977C217.19 89.574 255.113 79 359.384 79Z" stroke="#9D9C9F" stroke-width="16"/>
<path fill-rule="evenodd" clip-rule="evenodd" d="M1130.62 78.5C1235.03 78.5 1273 89.1064 1311.2 109.536C1348.82 129.656 1378.34 159.182 1398.46 196.804C1418.89 235.004 1429.5 272.972 1429.5 377.384V2641.62C1429.5 2746.03 1418.89 2784 1398.46 2822.2C1378.34 2859.82 1348.82 2889.34 1311.2 2909.46C1273 2929.89 1235.03 2940.5 1130.62 2940.5H359.384C254.972 2940.5 217.004 2929.89 178.804 2909.46C141.182 2889.34 111.656 2859.82 91.536 2822.2C71.1064 2784 60.5 2746.03 60.5 2641.62V377.384C60.5 272.972 71.1064 235.004 91.536 196.804C111.656 159.182 141.182 129.656 178.804 109.536C217.004 89.1064 254.972 78.5 359.384 78.5H1130.62Z" stroke="#949396" stroke-width="15"/>
<path fill-rule="evenodd" clip-rule="evenodd" d="M359.384 78H1130.62C1235.17 78 1273.18 88.6388 1311.43 109.095C1349.14 129.263 1378.74 158.858 1398.9 196.568C1419.36 234.818 1430 272.83 1430 377.384V2641.62C1430 2746.17 1419.36 2784.18 1398.9 2822.43C1378.74 2860.14 1349.14 2889.74 1311.43 2909.91C1273.18 2930.36 1235.17 2941 1130.62 2941H359.384C254.83 2941 216.818 2930.36 178.568 2909.91C140.858 2889.74 111.263 2860.14 91.0951 2822.43C70.6388 2784.18 60 2746.17 60 2641.62V377.384C60 272.83 70.6388 234.818 91.0951 196.568C111.263 158.858 140.858 129.263 178.568 109.095C216.818 88.6388 254.83 78 359.384 78Z" stroke="#727274" stroke-width="14"/>
<path fill-rule="evenodd" clip-rule="evenodd" d="M359.384 77.5H1130.62C1235.31 77.5 1273.37 88.1712 1311.67 108.654C1349.47 128.869 1379.13 158.534 1399.35 196.332C1419.83 234.632 1430.5 272.689 1430.5 377.384V2641.62C1430.5 2746.31 1419.83 2784.37 1399.35 2822.67C1379.13 2860.47 1349.47 2890.13 1311.67 2910.35C1273.37 2930.83 1235.31 2941.5 1130.62 2941.5H359.384C254.689 2941.5 216.632 2930.83 178.332 2910.35C140.534 2890.13 110.869 2860.47 90.6541 2822.67C70.1712 2784.37 59.5 2746.31 59.5 2641.62V377.384C59.5 272.689 70.1712 234.632 90.6541 196.332C110.869 158.534 140.534 128.869 178.332 108.654C216.632 88.1712 254.689 77.5 359.384 77.5Z" stroke="#676769" stroke-width="13"/>
<path fill-rule="evenodd" clip-rule="evenodd" d="M359.384 77H1130.62C1235.45 77 1273.55 87.7037 1311.9 108.213C1349.79 128.475 1379.52 158.209 1399.79 196.097C1420.3 234.446 1431 272.547 1431 377.384V2641.62C1431 2746.45 1420.3 2784.55 1399.79 2822.9C1379.52 2860.79 1349.79 2890.52 1311.9 2910.79C1273.55 2931.3 1235.45 2942 1130.62 2942H359.384C254.547 2942 216.446 2931.3 178.097 2910.79C140.209 2890.52 110.475 2860.79 90.2132 2822.9C69.7037 2784.55 59 2746.45 59 2641.62V377.384C59 272.547 69.7037 234.446 90.2132 196.097C110.475 158.209 140.209 128.475 178.097 108.213C216.446 87.7037 254.547 77 359.384 77Z" stroke="#505052" stroke-width="12"/>
<path fill-rule="evenodd" clip-rule="evenodd" d="M359.384 76.5H1130.62C1235.59 76.5 1273.74 87.2361 1312.14 107.772C1350.11 128.082 1379.92 157.885 1400.23 195.861C1420.76 234.26 1431.5 272.405 1431.5 377.384V2641.62C1431.5 2746.59 1420.76 2784.74 1400.23 2823.14C1379.92 2861.11 1350.11 2890.92 1312.14 2911.23C1273.74 2931.76 1235.59 2942.5 1130.62 2942.5H359.384C254.405 2942.5 216.26 2931.76 177.861 2911.23C139.885 2890.92 110.082 2861.11 89.7723 2823.14C69.2361 2784.74 58.5 2746.59 58.5 2641.62V377.384C58.5 272.405 69.2361 234.26 89.7723 195.861C110.082 157.885 139.885 128.082 177.861 107.772C216.26 87.2361 254.405 76.5 359.384 76.5Z" stroke="#454547" stroke-width="11"/>
<path fill-rule="evenodd" clip-rule="evenodd" d="M359.384 76H1130.62C1235.74 76 1273.93 86.7685 1312.38 107.331C1350.44 127.688 1380.31 157.561 1400.67 195.625C1421.23 234.074 1432 272.264 1432 377.384V2641.62C1432 2746.74 1421.23 2784.93 1400.67 2823.38C1380.31 2861.44 1350.44 2891.31 1312.38 2911.67C1273.93 2932.23 1235.74 2943 1130.62 2943H359.384C254.264 2943 216.074 2932.23 177.625 2911.67C139.561 2891.31 109.688 2861.44 89.3314 2823.38C68.7685 2784.93 58 2746.74 58 2641.62V377.384C58 272.264 68.7685 234.074 89.3314 195.625C109.688 157.561 139.561 127.688 177.625 107.331C216.074 86.7685 254.264 76 359.384 76Z" stroke="#313133" stroke-width="10"/>
<path fill-rule="evenodd" clip-rule="evenodd" d="M359.384 75.5H1130.62C1235.88 75.5 1274.11 86.3009 1312.61 106.891C1350.76 127.295 1380.71 157.237 1401.11 195.389C1421.7 233.888 1432.5 272.122 1432.5 377.384V2641.62C1432.5 2746.88 1421.7 2785.11 1401.11 2823.61C1380.71 2861.76 1350.76 2891.71 1312.61 2912.11C1274.11 2932.7 1235.88 2943.5 1130.62 2943.5H359.384C254.122 2943.5 215.888 2932.7 177.389 2912.11C139.237 2891.71 109.295 2861.76 88.8905 2823.61C68.3009 2785.11 57.5 2746.88 57.5 2641.62V377.384C57.5 272.122 68.3009 233.888 88.8905 195.389C109.295 157.237 139.237 127.295 177.389 106.891C215.888 86.3009 254.122 75.5 359.384 75.5Z" stroke="#464646" stroke-width="9"/>
<path fill-rule="evenodd" clip-rule="evenodd" d="M359.384 75H1130.62C1236.02 75 1274.3 85.8333 1312.85 106.45C1351.09 126.901 1381.1 156.913 1401.55 195.153C1422.17 233.702 1433 271.981 1433 377.384V2641.62C1433 2747.02 1422.17 2785.3 1401.55 2823.85C1381.1 2862.09 1351.09 2892.1 1312.85 2912.55C1274.3 2933.17 1236.02 2944 1130.62 2944H359.384C253.981 2944 215.702 2933.17 177.153 2912.55C138.913 2892.1 108.901 2862.09 88.4496 2823.85C67.8333 2785.3 57 2747.02 57 2641.62V377.384C57 271.981 67.8333 233.702 88.4496 195.153C108.901 156.913 138.913 126.901 177.153 106.45C215.702 85.8333 253.981 75 359.384 75Z" stroke="#1D1D1F" stroke-width="8"/>
<path fill-rule="evenodd" clip-rule="evenodd" d="M1130.62 73C1236.59 73 1275.04 83.963 1313.79 104.686C1352.38 125.327 1382.67 155.616 1403.31 194.21C1424.04 232.959 1435 271.414 1435 377.384V2641.62C1435 2747.59 1424.04 2786.04 1403.31 2824.79C1382.67 2863.38 1352.38 2893.67 1313.79 2914.31C1275.04 2935.04 1236.59 2946 1130.62 2946H359.384C253.414 2946 214.959 2935.04 176.21 2914.31C137.616 2893.67 107.327 2863.38 86.686 2824.79C65.963 2786.04 55 2747.59 55 2641.62V377.384C55 271.414 65.963 232.959 86.686 194.21C107.327 155.616 137.616 125.327 176.21 104.686C214.959 83.963 253.414 73 359.384 73H1130.62Z" stroke="#1F1F21" stroke-width="4"/>
<path fill-rule="evenodd" clip-rule="evenodd" d="M359.384 72.5H1130.62C1236.73 72.5 1275.23 83.4954 1314.03 104.245C1352.71 124.933 1383.07 155.291 1403.75 193.974C1424.5 232.773 1435.5 271.273 1435.5 377.384V2641.62C1435.5 2747.73 1424.5 2786.23 1403.75 2825.03C1383.07 2863.71 1352.71 2894.07 1314.03 2914.75C1275.23 2935.5 1236.73 2946.5 1130.62 2946.5H359.384C253.273 2946.5 214.773 2935.5 175.974 2914.75C137.291 2894.07 106.933 2863.71 86.2451 2825.03C65.4954 2786.23 54.5 2747.73 54.5 2641.62V377.384C54.5 271.273 65.4954 232.773 86.2451 193.974C106.933 155.291 137.291 124.933 175.974 104.245C214.773 83.4954 253.273 72.5 359.384 72.5Z" stroke="#28282A" stroke-width="3"/>
<path fill-rule="evenodd" clip-rule="evenodd" d="M359.384 72H1130.62C1236.87 72 1275.41 83.0278 1314.26 103.804C1353.03 124.539 1383.46 154.967 1404.2 193.739C1424.97 232.587 1436 271.131 1436 377.384V2641.62C1436 2747.87 1424.97 2786.41 1404.2 2825.26C1383.46 2864.03 1353.03 2894.46 1314.26 2915.2C1275.41 2935.97 1236.87 2947 1130.62 2947H359.384C253.131 2947 214.587 2935.97 175.739 2915.2C136.967 2894.46 106.539 2864.03 85.8042 2825.26C65.0278 2786.41 54 2747.87 54 2641.62V377.384C54 271.131 65.0278 232.587 85.8042 193.739C106.539 154.967 136.967 124.539 175.739 103.804C214.587 83.0278 253.131 72 359.384 72Z" stroke="#626262" stroke-width="2"/>
<path fill-rule="evenodd" clip-rule="evenodd" d="M359.384 71.5H1130.62C1237.01 71.5 1275.6 82.5602 1314.5 103.363C1353.36 124.146 1383.85 154.643 1404.64 193.503C1425.44 232.401 1436.5 270.989 1436.5 377.384V2641.62C1436.5 2748.01 1425.44 2786.6 1404.64 2825.5C1383.85 2864.36 1353.36 2894.85 1314.5 2915.64C1275.6 2936.44 1237.01 2947.5 1130.62 2947.5H359.384C252.989 2947.5 214.401 2936.44 175.503 2915.64C136.643 2894.85 106.146 2864.36 85.3633 2825.5C64.5602 2786.6 53.5 2748.01 53.5 2641.62V377.384C53.5 270.989 64.5602 232.401 85.3633 193.503C106.146 154.643 136.643 124.146 175.503 103.363C214.401 82.5602 252.989 71.5 359.384 71.5Z" stroke="#BDBCBC"/>
<path fill-rule="evenodd" clip-rule="evenodd" d="M359.384 62H1130.62C1239.7 62 1279.13 73.6762 1318.98 94.986C1359.52 116.667 1391.33 148.483 1413.01 189.023C1434.32 228.869 1446 268.299 1446 377.384V2641.62C1446 2750.7 1434.32 2790.13 1413.01 2829.98C1391.33 2870.52 1359.52 2902.33 1318.98 2924.01C1279.13 2945.32 1239.7 2957 1130.62 2957H359.384C250.299 2957 210.869 2945.32 171.023 2924.01C130.483 2902.33 98.6669 2870.52 76.986 2829.98C55.6762 2790.13 44 2750.7 44 2641.62V377.384C44 268.299 55.6762 228.869 76.986 189.023C98.6669 148.483 130.483 116.667 171.023 94.986C210.869 73.6762 250.299 62 359.384 62Z" stroke="#F6EEE7" stroke-width="18"/>
<path fill-rule="evenodd" clip-rule="evenodd" d="M1130.62 62.5C1239.56 62.5 1278.95 74.1437 1318.74 95.4269C1359.19 117.061 1390.94 148.807 1412.57 189.258C1433.86 229.054 1445.5 268.441 1445.5 377.384V2641.62C1445.5 2750.56 1433.86 2789.95 1412.57 2829.74C1390.94 2870.19 1359.19 2901.94 1318.74 2923.57C1278.95 2944.86 1239.56 2956.5 1130.62 2956.5H359.384C250.441 2956.5 211.054 2944.86 171.258 2923.57C130.807 2901.94 99.0606 2870.19 77.4269 2829.74C56.1437 2789.95 44.5 2750.56 44.5 2641.62V377.384C44.5 268.441 56.1437 229.054 77.4269 189.258C99.0606 148.807 130.807 117.061 171.258 95.4269C211.054 74.1437 250.441 62.5 359.384 62.5H1130.62Z" stroke="#616161" stroke-width="17"/>
<path fill-rule="evenodd" clip-rule="evenodd" d="M1130.62 63.5C1239.28 63.5 1278.57 75.0789 1318.27 96.3088C1358.54 117.848 1390.15 149.455 1411.69 189.73C1432.92 229.426 1444.5 268.724 1444.5 377.384V2641.62C1444.5 2750.28 1432.92 2789.57 1411.69 2829.27C1390.15 2869.54 1358.54 2901.15 1318.27 2922.69C1278.57 2943.92 1239.28 2955.5 1130.62 2955.5H359.384C250.724 2955.5 211.426 2943.92 171.73 2922.69C131.455 2901.15 99.8478 2869.54 78.3088 2829.27C57.0789 2789.57 45.5 2750.28 45.5 2641.62V377.384C45.5 268.724 57.0789 229.426 78.3088 189.73C99.8478 149.455 131.455 117.848 171.73 96.3088C211.426 75.0789 250.724 63.5 359.384 63.5H1130.62Z" stroke="#454545" stroke-width="15"/>
<path fill-rule="evenodd" clip-rule="evenodd" d="M1130.62 64C1239.13 64 1278.39 75.5465 1318.03 96.7497C1358.22 118.241 1389.76 149.78 1411.25 189.966C1432.45 229.612 1444 268.865 1444 377.384V2641.62C1444 2750.13 1432.45 2789.39 1411.25 2829.03C1389.76 2869.22 1358.22 2900.76 1318.03 2922.25C1278.39 2943.45 1239.13 2955 1130.62 2955H359.384C250.865 2955 211.612 2943.45 171.966 2922.25C131.78 2900.76 100.241 2869.22 78.7497 2829.03C57.5465 2789.39 46 2750.13 46 2641.62V377.384C46 268.865 57.5465 229.612 78.7497 189.966C100.241 149.78 131.78 118.241 171.966 96.7497C211.612 75.5465 250.865 64 359.384 64H1130.62Z" stroke="#2D2D2F" stroke-width="14"/>
<path fill-rule="evenodd" clip-rule="evenodd" d="M1130.62 64.5C1238.99 64.5 1278.2 76.0141 1317.8 97.1906C1357.9 118.635 1389.36 150.104 1410.81 190.202C1431.99 229.798 1443.5 269.007 1443.5 377.384V2641.62C1443.5 2749.99 1431.99 2789.2 1410.81 2828.8C1389.36 2868.9 1357.9 2900.36 1317.8 2921.81C1278.2 2942.99 1238.99 2954.5 1130.62 2954.5H359.384C251.007 2954.5 211.798 2942.99 172.202 2921.81C132.104 2900.36 100.635 2868.9 79.1906 2828.8C58.0141 2789.2 46.5 2749.99 46.5 2641.62V377.384C46.5 269.007 58.0141 229.798 79.1906 190.202C100.635 150.104 132.104 118.635 172.202 97.1906C211.798 76.0141 251.007 64.5 359.384 64.5H1130.62Z" stroke="#0C0C0E" stroke-width="13"/>
<path fill-rule="evenodd" clip-rule="evenodd" d="M1130.62 64C1239.13 64 1278.39 75.5465 1318.03 96.7497C1358.22 118.241 1389.76 149.78 1411.25 189.966C1432.45 229.612 1444 268.865 1444 377.384V2641.62C1444 2750.13 1432.45 2789.39 1411.25 2829.03C1389.76 2869.22 1358.22 2900.76 1318.03 2922.25C1278.39 2943.45 1239.13 2955 1130.62 2955H359.384C250.865 2955 211.612 2943.45 171.966 2922.25C131.78 2900.76 100.241 2869.22 78.7497 2829.03C57.5465 2789.39 46 2750.13 46 2641.62V377.384C46 268.865 57.5465 229.612 78.7497 189.966C100.241 149.78 131.78 118.241 171.966 96.7497C211.612 75.5465 250.865 64 359.384 64H1130.62Z" stroke="#353535" stroke-width="14"/>
<path fill-rule="evenodd" clip-rule="evenodd" d="M1130.62 64.5C1238.99 64.5 1278.2 76.0141 1317.8 97.1906C1357.9 118.635 1389.36 150.104 1410.81 190.202C1431.99 229.798 1443.5 269.007 1443.5 377.384V2641.62C1443.5 2749.99 1431.99 2789.2 1410.81 2828.8C1389.36 2868.9 1357.9 2900.36 1317.8 2921.81C1278.2 2942.99 1238.99 2954.5 1130.62 2954.5H359.384C251.007 2954.5 211.798 2942.99 172.202 2921.81C132.104 2900.36 100.635 2868.9 79.1906 2828.8C58.0141 2789.2 46.5 2749.99 46.5 2641.62V377.384C46.5 269.007 58.0141 229.798 79.1906 190.202C100.635 150.104 132.104 118.635 172.202 97.1906C211.798 76.0141 251.007 64.5 359.384 64.5H1130.62Z" stroke="#414141" stroke-width="13"/>
<path fill-rule="evenodd" clip-rule="evenodd" d="M1130.62 65C1238.85 65 1278.02 76.4817 1317.56 97.6315C1357.57 119.029 1388.97 150.428 1410.37 190.437C1431.52 229.984 1443 269.149 1443 377.384V2641.62C1443 2749.85 1431.52 2789.02 1410.37 2828.56C1388.97 2868.57 1357.57 2899.97 1317.56 2921.37C1278.02 2942.52 1238.85 2954 1130.62 2954H359.384C251.149 2954 211.984 2942.52 172.437 2921.37C132.428 2899.97 101.029 2868.57 79.6315 2828.56C58.4817 2789.02 47 2749.85 47 2641.62V377.384C47 269.149 58.4817 229.984 79.6315 190.437C101.029 150.428 132.428 119.029 172.437 97.6315C211.984 76.4817 251.149 65 359.384 65H1130.62Z" stroke="#565656" stroke-width="12"/>
<path fill-rule="evenodd" clip-rule="evenodd" d="M1130.62 65.5C1238.71 65.5 1277.83 76.9492 1317.33 98.0724C1357.25 119.422 1388.58 150.752 1409.93 190.673C1431.05 230.17 1442.5 269.29 1442.5 377.384V2641.62C1442.5 2749.71 1431.05 2788.83 1409.93 2828.33C1388.58 2868.25 1357.25 2899.58 1317.33 2920.93C1277.83 2942.05 1238.71 2953.5 1130.62 2953.5H359.384C251.29 2953.5 212.17 2942.05 172.673 2920.93C132.752 2899.58 101.422 2868.25 80.0724 2828.33C58.9492 2788.83 47.5 2749.71 47.5 2641.62V377.384C47.5 269.29 58.9492 230.17 80.0724 190.673C101.422 150.752 132.752 119.422 172.673 98.0724C212.17 76.9492 251.29 65.5 359.384 65.5H1130.62Z" stroke="#797979" stroke-width="11"/>
<path fill-rule="evenodd" clip-rule="evenodd" d="M359.384 66H1130.62C1238.57 66 1277.64 77.4168 1317.09 98.5133C1356.92 119.816 1388.18 151.077 1409.49 190.909C1430.58 230.356 1442 269.432 1442 377.384V2641.62C1442 2749.57 1430.58 2788.64 1409.49 2828.09C1388.18 2867.92 1356.92 2899.18 1317.09 2920.49C1277.64 2941.58 1238.57 2953 1130.62 2953H359.384C251.432 2953 212.356 2941.58 172.909 2920.49C133.077 2899.18 101.816 2867.92 80.5133 2828.09C59.4168 2788.64 48 2749.57 48 2641.62V377.384C48 269.432 59.4168 230.356 80.5133 190.909C101.816 151.077 133.077 119.816 172.909 98.5133C212.356 77.4168 251.432 66 359.384 66Z" stroke="#9C9C9C" stroke-width="10"/>
<path fill-rule="evenodd" clip-rule="evenodd" d="M359.384 67H1130.62C1238.29 67 1277.27 78.352 1316.62 99.3951C1356.28 120.603 1387.4 151.725 1408.6 191.381C1429.65 230.728 1441 269.715 1441 377.384V2641.62C1441 2749.29 1429.65 2788.27 1408.6 2827.62C1387.4 2867.27 1356.28 2898.4 1316.62 2919.6C1277.27 2940.65 1238.29 2952 1130.62 2952H359.384C251.715 2952 212.728 2940.65 173.381 2919.6C133.725 2898.4 102.603 2867.27 81.3951 2827.62C60.352 2788.27 49 2749.29 49 2641.62V377.384C49 269.715 60.352 230.728 81.3951 191.381C102.603 151.725 133.725 120.603 173.381 99.3951C212.728 78.352 251.715 67 359.384 67Z" stroke="#BEBEBE" stroke-width="8"/>
<path fill-rule="evenodd" clip-rule="evenodd" d="M359.384 67.5H1130.62C1238.14 67.5 1277.09 78.8196 1316.38 99.836C1355.95 120.997 1387 152.049 1408.16 191.616C1429.18 230.914 1440.5 269.857 1440.5 377.384V2641.62C1440.5 2749.14 1429.18 2788.09 1408.16 2827.38C1387 2866.95 1355.95 2898 1316.38 2919.16C1277.09 2940.18 1238.14 2951.5 1130.62 2951.5H359.384C251.857 2951.5 212.914 2940.18 173.616 2919.16C134.049 2898 102.997 2866.95 81.836 2827.38C60.8196 2788.09 49.5 2749.14 49.5 2641.62V377.384C49.5 269.857 60.8196 230.914 81.836 191.616C102.997 152.049 134.049 120.997 173.616 99.836C212.914 78.8196 251.857 67.5 359.384 67.5Z" stroke="#A8A8A8" stroke-width="7"/>
<path fill-rule="evenodd" clip-rule="evenodd" d="M359.384 68H1130.62C1238 68 1276.9 79.2872 1316.15 100.277C1355.63 121.39 1386.61 152.373 1407.72 191.852C1428.71 231.1 1440 269.998 1440 377.384V2641.62C1440 2749 1428.71 2787.9 1407.72 2827.15C1386.61 2866.63 1355.63 2897.61 1316.15 2918.72C1276.9 2939.71 1238 2951 1130.62 2951H359.384C251.998 2951 213.1 2939.71 173.852 2918.72C134.373 2897.61 103.39 2866.63 82.2769 2827.15C61.2872 2787.9 50 2749 50 2641.62V377.384C50 269.998 61.2872 231.1 82.2769 191.852C103.39 152.373 134.373 121.39 173.852 100.277C213.1 79.2872 251.998 68 359.384 68Z" stroke="#BBBBBB" stroke-width="6"/>
<path fill-rule="evenodd" clip-rule="evenodd" d="M359.384 68.5H1130.62C1237.86 68.5 1276.71 79.7547 1315.91 100.718C1355.3 121.784 1386.22 152.698 1407.28 192.088C1428.25 231.285 1439.5 270.14 1439.5 377.384V2641.62C1439.5 2748.86 1428.25 2787.71 1407.28 2826.91C1386.22 2866.3 1355.3 2897.22 1315.91 2918.28C1276.71 2939.25 1237.86 2950.5 1130.62 2950.5H359.384C252.14 2950.5 213.285 2939.25 174.088 2918.28C134.698 2897.22 103.784 2866.3 82.7178 2826.91C61.7547 2787.71 50.5 2748.86 50.5 2641.62V377.384C50.5 270.14 61.7547 231.285 82.7178 192.088C103.784 152.698 134.698 121.784 174.088 100.718C213.285 79.7547 252.14 68.5 359.384 68.5Z" stroke="#393939" stroke-width="5"/>
<path fill-rule="evenodd" clip-rule="evenodd" d="M359.384 69H1130.62C1237.72 69 1276.53 80.2223 1315.68 101.159C1354.98 122.178 1385.82 153.022 1406.84 192.324C1427.78 231.471 1439 270.281 1439 377.384V2641.62C1439 2748.72 1427.78 2787.53 1406.84 2826.68C1385.82 2865.98 1354.98 2896.82 1315.68 2917.84C1276.53 2938.78 1237.72 2950 1130.62 2950H359.384C252.281 2950 213.471 2938.78 174.324 2917.84C135.022 2896.82 104.178 2865.98 83.1587 2826.68C62.2223 2787.53 51 2748.72 51 2641.62V377.384C51 270.281 62.2223 231.471 83.1587 192.324C104.178 153.022 135.022 122.178 174.324 101.159C213.471 80.2223 252.281 69 359.384 69Z" stroke="#393939" stroke-width="4"/>
<path fill-rule="evenodd" clip-rule="evenodd" d="M359.384 69.5H1130.62C1237.58 69.5 1276.34 80.6899 1315.44 101.6C1354.65 122.571 1385.43 153.346 1406.4 192.56C1427.31 231.657 1438.5 270.423 1438.5 377.384V2641.62C1438.5 2748.58 1427.31 2787.34 1406.4 2826.44C1385.43 2865.65 1354.65 2896.43 1315.44 2917.4C1276.34 2938.31 1237.58 2949.5 1130.62 2949.5H359.384C252.423 2949.5 213.657 2938.31 174.56 2917.4C135.346 2896.43 104.571 2865.65 83.5996 2826.44C62.6899 2787.34 51.5 2748.58 51.5 2641.62V377.384C51.5 270.423 62.6899 231.657 83.5996 192.56C104.571 153.346 135.346 122.571 174.56 101.6C213.657 80.6899 252.423 69.5 359.384 69.5Z" stroke="#1C1C1C" stroke-width="3"/>
<path fill-rule="evenodd" clip-rule="evenodd" d="M359.384 70H1130.62C1237.44 70 1276.16 81.1575 1315.2 102.041C1354.33 122.965 1385.04 153.67 1405.96 192.795C1426.84 231.843 1438 270.565 1438 377.384V2641.62C1438 2748.44 1426.84 2787.16 1405.96 2826.2C1385.04 2865.33 1354.33 2896.04 1315.2 2916.96C1276.16 2937.84 1237.44 2949 1130.62 2949H359.384C252.565 2949 213.843 2937.84 174.795 2916.96C135.67 2896.04 104.965 2865.33 84.0405 2826.2C63.1575 2787.16 52 2748.44 52 2641.62V377.384C52 270.565 63.1575 231.843 84.0405 192.795C104.965 153.67 135.67 122.965 174.795 102.041C213.843 81.1575 252.565 70 359.384 70Z" stroke="#070707" stroke-width="2"/>
<path fill-rule="evenodd" clip-rule="evenodd" d="M359.384 70.5H1130.62C1237.29 70.5 1275.97 81.6251 1314.97 102.481C1354.01 123.358 1384.64 153.995 1405.52 193.031C1426.37 232.029 1437.5 270.706 1437.5 377.384V2641.62C1437.5 2748.29 1426.37 2786.97 1405.52 2825.97C1384.64 2865.01 1354.01 2895.64 1314.97 2916.52C1275.97 2937.37 1237.29 2948.5 1130.62 2948.5H359.384C252.706 2948.5 214.029 2937.37 175.031 2916.52C135.995 2895.64 105.358 2865.01 84.4815 2825.97C63.6251 2786.97 52.5 2748.29 52.5 2641.62V377.384C52.5 270.706 63.6251 232.029 84.4815 193.031C105.358 153.995 135.995 123.358 175.031 102.481C214.029 81.6251 252.706 70.5 359.384 70.5Z" stroke="#ADA9A6"/>
</g>
<mask id="mask2_1_432" style="mask-type:luminance" maskUnits="userSpaceOnUse" x="54" y="53" width="1383" height="2892">
<path d="M1135.74 53C1240.5 53 1278.48 63.907 1316.78 84.3881C1355.08 104.869 1385.13 134.924 1405.61 173.221C1426.09 211.517 1437 249.503 1437 354.257V2643.74C1437 2748.5 1426.09 2786.48 1405.61 2824.78C1385.13 2863.08 1355.08 2893.13 1316.78 2913.61C1278.48 2934.09 1240.5 2945 1135.74 2945H355.257C250.503 2945 212.517 2934.09 174.221 2913.61C135.924 2893.13 105.869 2863.08 85.3881 2824.78C64.907 2786.48 54 2748.5 54 2643.74L54 354.257C54 249.503 64.907 211.517 85.3881 173.221C105.869 134.924 135.924 104.869 174.221 84.3881C212.517 63.907 250.503 53 355.257 53L1135.74 53ZM373.257 71C268.503 71 230.517 81.907 192.221 102.388C153.924 122.869 123.869 152.924 103.388 191.221C82.907 229.517 72 267.503 72 372.257V2623.74C72 2728.5 82.907 2766.48 103.388 2804.78C123.869 2843.08 153.924 2873.13 192.221 2893.61C230.517 2914.09 268.503 2925 373.257 2925H1117.74C1222.5 2925 1260.48 2914.09 1298.78 2893.61C1337.08 2873.13 1367.13 2843.08 1387.61 2804.78C1408.09 2766.48 1419 2728.5 1419 2623.74V372.257C1419 267.503 1408.09 229.517 1387.61 191.221C1367.13 152.924 1337.08 122.869 1298.78 102.388C1260.48 81.907 1222.5 71 1117.74 71H373.257Z" fill="white"/>
</mask>
<g mask="url(#mask2_1_432)">
<path fill-rule="evenodd" clip-rule="evenodd" d="M378.384 84.5H1111.62C1214.61 84.5 1252.14 94.7822 1289.84 114.945C1326.58 134.592 1355.41 163.424 1375.05 200.162C1395.22 237.863 1405.5 275.388 1405.5 378.384V2641.62C1405.5 2744.61 1395.22 2782.14 1375.05 2819.84C1355.41 2856.58 1326.58 2885.41 1289.84 2905.05C1252.14 2925.22 1214.61 2935.5 1111.62 2935.5H378.384C275.388 2935.5 237.863 2925.22 200.162 2905.05C163.424 2885.41 134.592 2856.58 114.945 2819.84C94.7822 2782.14 84.5 2744.61 84.5 2641.62V378.384C84.5 275.388 94.7822 237.863 114.945 200.162C134.592 163.424 163.424 134.592 200.162 114.945C237.863 94.7822 275.388 84.5 378.384 84.5Z" stroke="#F0F0F0" stroke-width="25"/>
<path fill-rule="evenodd" clip-rule="evenodd" d="M378.384 84H1111.62C1214.75 84 1252.32 94.3147 1290.07 114.504C1326.9 134.199 1355.8 163.1 1375.5 199.926C1395.69 237.677 1406 275.246 1406 378.384V2641.62C1406 2744.75 1395.69 2782.32 1375.5 2820.07C1355.8 2856.9 1326.9 2885.8 1290.07 2905.5C1252.32 2925.69 1214.75 2936 1111.62 2936H378.384C275.246 2936 237.677 2925.69 199.926 2905.5C163.1 2885.8 134.199 2856.9 114.504 2820.07C94.3147 2782.32 84 2744.75 84 2641.62V378.384C84 275.246 94.3147 237.677 114.504 199.926C134.199 163.1 163.1 134.199 199.926 114.504C237.677 94.3147 275.246 84 378.384 84Z" stroke="#E5E5E5" stroke-width="24"/>
<path fill-rule="evenodd" clip-rule="evenodd" d="M378.384 83.5H1111.62C1214.9 83.5 1252.51 93.8471 1290.31 114.063C1327.22 133.805 1356.19 162.776 1375.94 199.69C1396.15 237.491 1406.5 275.105 1406.5 378.384V2641.62C1406.5 2744.9 1396.15 2782.51 1375.94 2820.31C1356.19 2857.22 1327.22 2886.19 1290.31 2905.94C1252.51 2926.15 1214.9 2936.5 1111.62 2936.5H378.384C275.105 2936.5 237.491 2926.15 199.69 2905.94C162.776 2886.19 133.805 2857.22 114.063 2820.31C93.8471 2782.51 83.5 2744.9 83.5 2641.62V378.384C83.5 275.105 93.8471 237.491 114.063 199.69C133.805 162.776 162.776 133.805 199.69 114.063C237.491 93.8471 275.105 83.5 378.384 83.5Z" stroke="#D0D1D1" stroke-width="23"/>
<path fill-rule="evenodd" clip-rule="evenodd" d="M378.384 83H1111.62C1215.04 83 1252.69 93.3795 1290.55 113.622C1327.55 133.412 1356.59 162.452 1376.38 199.455C1396.62 237.305 1407 274.963 1407 378.384V2641.62C1407 2745.04 1396.62 2782.69 1376.38 2820.55C1356.59 2857.55 1327.55 2886.59 1290.55 2906.38C1252.69 2926.62 1215.04 2937 1111.62 2937H378.384C274.963 2937 237.305 2926.62 199.455 2906.38C162.452 2886.59 133.412 2857.55 113.622 2820.55C93.3795 2782.69 83 2745.04 83 2641.62V378.384C83 274.963 93.3795 237.305 113.622 199.455C133.412 162.452 162.452 133.412 199.455 113.622C237.305 93.3795 274.963 83 378.384 83Z" stroke="#B3B2B4" stroke-width="22"/>
<path fill-rule="evenodd" clip-rule="evenodd" d="M378.384 82.5H1111.62C1215.18 82.5 1252.88 92.9119 1290.78 113.181C1327.87 133.018 1356.98 162.127 1376.82 199.219C1397.09 237.119 1407.5 274.821 1407.5 378.384V2641.62C1407.5 2745.18 1397.09 2782.88 1376.82 2820.78C1356.98 2857.87 1327.87 2886.98 1290.78 2906.82C1252.88 2927.09 1215.18 2937.5 1111.62 2937.5H378.384C274.821 2937.5 237.119 2927.09 199.219 2906.82C162.127 2886.98 133.018 2857.87 113.181 2820.78C92.9119 2782.88 82.5 2745.18 82.5 2641.62V378.384C82.5 274.821 92.9119 237.119 113.181 199.219C133.018 162.127 162.127 133.018 199.219 113.181C237.119 92.9119 274.821 82.5 378.384 82.5Z" stroke="#616161" stroke-width="21"/>
<path fill-rule="evenodd" clip-rule="evenodd" d="M378.384 82H1111.62C1215.32 82 1253.07 92.4443 1291.02 112.74C1328.2 132.624 1357.38 161.803 1377.26 198.983C1397.56 236.933 1408 274.68 1408 378.384V2641.62C1408 2745.32 1397.56 2783.07 1377.26 2821.02C1357.38 2858.2 1328.2 2887.38 1291.02 2907.26C1253.07 2927.56 1215.32 2938 1111.62 2938H378.384C274.68 2938 236.933 2927.56 198.983 2907.26C161.803 2887.38 132.624 2858.2 112.74 2821.02C92.4443 2783.07 82 2745.32 82 2641.62V378.384C82 274.68 92.4443 236.933 112.74 198.983C132.624 161.803 161.803 132.624 198.983 112.74C236.933 92.4443 274.68 82 378.384 82Z" stroke="#B3B2B4" stroke-width="20"/>
<path fill-rule="evenodd" clip-rule="evenodd" d="M378.384 81.5H1111.62C1215.46 81.5 1253.25 91.9767 1291.25 112.3C1328.52 132.231 1357.77 161.479 1377.7 198.747C1398.02 236.748 1408.5 274.538 1408.5 378.384V2641.62C1408.5 2745.46 1398.02 2783.25 1377.7 2821.25C1357.77 2858.52 1328.52 2887.77 1291.25 2907.7C1253.25 2928.02 1215.46 2938.5 1111.62 2938.5H378.384C274.538 2938.5 236.748 2928.02 198.747 2907.7C161.479 2887.77 132.231 2858.52 112.3 2821.25C91.9767 2783.25 81.5 2745.46 81.5 2641.62V378.384C81.5 274.538 91.9767 236.748 112.3 198.747C132.231 161.479 161.479 132.231 198.747 112.3C236.748 91.9767 274.538 81.5 378.384 81.5Z" stroke="#B3B2B4" stroke-width="19"/>
<path fill-rule="evenodd" clip-rule="evenodd" d="M1111.62 81C1215.6 81 1253.44 91.5092 1291.49 111.859C1328.85 131.837 1358.16 161.155 1378.14 198.511C1398.49 236.562 1409 274.397 1409 378.384V2641.62C1409 2745.6 1398.49 2783.44 1378.14 2821.49C1358.16 2858.85 1328.85 2888.16 1291.49 2908.14C1253.44 2928.49 1215.6 2939 1111.62 2939H378.384C274.397 2939 236.562 2928.49 198.511 2908.14C161.155 2888.16 131.837 2858.85 111.859 2821.49C91.5092 2783.44 81 2745.6 81 2641.62V378.384C81 274.397 91.5092 236.562 111.859 198.511C131.837 161.155 161.155 131.837 198.511 111.859C236.562 91.5092 274.397 81 378.384 81H1111.62Z" stroke="#8C8A8D" stroke-width="18"/>
<path fill-rule="evenodd" clip-rule="evenodd" d="M1111.62 80.5C1215.75 80.5 1253.62 91.0416 1291.72 111.418C1329.17 131.444 1358.56 160.831 1378.58 198.276C1398.96 236.376 1409.5 274.255 1409.5 378.384V2641.62C1409.5 2745.75 1398.96 2783.62 1378.58 2821.72C1358.56 2859.17 1329.17 2888.56 1291.72 2908.58C1253.62 2928.96 1215.75 2939.5 1111.62 2939.5H378.384C274.255 2939.5 236.376 2928.96 198.276 2908.58C160.831 2888.56 131.444 2859.17 111.418 2821.72C91.0416 2783.62 80.5 2745.75 80.5 2641.62V378.384C80.5 274.255 91.0416 236.376 111.418 198.276C131.444 160.831 160.831 131.444 198.276 111.418C236.376 91.0416 274.255 80.5 378.384 80.5H1111.62Z" stroke="#747476" stroke-width="17"/>
<path fill-rule="evenodd" clip-rule="evenodd" d="M1111.62 80C1215.89 80 1253.81 90.574 1291.96 110.977C1329.49 131.05 1358.95 160.506 1379.02 198.04C1399.43 236.19 1410 274.113 1410 378.384V2641.62C1410 2745.89 1399.43 2783.81 1379.02 2821.96C1358.95 2859.49 1329.49 2888.95 1291.96 2909.02C1253.81 2929.43 1215.89 2940 1111.62 2940H378.384C274.113 2940 236.19 2929.43 198.04 2909.02C160.506 2888.95 131.05 2859.49 110.977 2821.96C90.574 2783.81 80 2745.89 80 2641.62V378.384C80 274.113 90.574 236.19 110.977 198.04C131.05 160.506 160.506 131.05 198.04 110.977C236.19 90.574 274.113 80 378.384 80H1111.62Z" stroke="#717270" stroke-width="16"/>
<path fill-rule="evenodd" clip-rule="evenodd" d="M1111.62 79.5C1216.03 79.5 1254 90.1064 1292.2 110.536C1329.82 130.656 1359.34 160.182 1379.46 197.804C1399.89 236.004 1410.5 273.972 1410.5 378.384V2641.62C1410.5 2746.03 1399.89 2784 1379.46 2822.2C1359.34 2859.82 1329.82 2889.34 1292.2 2909.46C1254 2929.89 1216.03 2940.5 1111.62 2940.5H378.384C273.972 2940.5 236.004 2929.89 197.804 2909.46C160.182 2889.34 130.656 2859.82 110.536 2822.2C90.1064 2784 79.5 2746.03 79.5 2641.62V378.384C79.5 273.972 90.1064 236.004 110.536 197.804C130.656 160.182 160.182 130.656 197.804 110.536C236.004 90.1064 273.972 79.5 378.384 79.5H1111.62Z" stroke="#575659" stroke-width="15"/>
<path fill-rule="evenodd" clip-rule="evenodd" d="M1111.62 79C1216.17 79 1254.18 89.6388 1292.43 110.095C1330.14 130.263 1359.74 159.858 1379.9 197.568C1400.36 235.818 1411 273.83 1411 378.384V2641.62C1411 2746.17 1400.36 2784.18 1379.9 2822.43C1359.74 2860.14 1330.14 2889.74 1292.43 2909.91C1254.18 2930.36 1216.17 2941 1111.62 2941H378.384C273.83 2941 235.818 2930.36 197.568 2909.91C159.858 2889.74 130.263 2860.14 110.095 2822.43C89.6388 2784.18 79 2746.17 79 2641.62V378.384C79 273.83 89.6388 235.818 110.095 197.568C130.263 159.858 159.858 130.263 197.568 110.095C235.818 89.6388 273.83 79 378.384 79H1111.62Z" stroke="#535155" stroke-width="14"/>
<path fill-rule="evenodd" clip-rule="evenodd" d="M378.384 78.5H1111.62C1216.31 78.5 1254.37 89.1712 1292.67 109.654C1330.47 129.869 1360.13 159.534 1380.35 197.332C1400.83 235.632 1411.5 273.689 1411.5 378.384V2641.62C1411.5 2746.31 1400.83 2784.37 1380.35 2822.67C1360.13 2860.47 1330.47 2890.13 1292.67 2910.35C1254.37 2930.83 1216.31 2941.5 1111.62 2941.5H378.384C273.689 2941.5 235.632 2930.83 197.332 2910.35C159.534 2890.13 129.869 2860.47 109.654 2822.67C89.1712 2784.37 78.5 2746.31 78.5 2641.62V378.384C78.5 273.689 89.1712 235.632 109.654 197.332C129.869 159.534 159.534 129.869 197.332 109.654C235.632 89.1712 273.689 78.5 378.384 78.5Z" stroke="#161618" stroke-width="13"/>
<path fill-rule="evenodd" clip-rule="evenodd" d="M378.384 78H1111.62C1216.45 78 1254.55 88.7037 1292.9 109.213C1330.79 129.475 1360.52 159.209 1380.79 197.097C1401.3 235.446 1412 273.547 1412 378.384V2641.62C1412 2746.45 1401.3 2784.55 1380.79 2822.9C1360.52 2860.79 1330.79 2890.52 1292.9 2910.79C1254.55 2931.3 1216.45 2942 1111.62 2942H378.384C273.547 2942 235.446 2931.3 197.097 2910.79C159.209 2890.52 129.475 2860.79 109.213 2822.9C88.7037 2784.55 78 2746.45 78 2641.62V378.384C78 273.547 88.7037 235.446 109.213 197.097C129.475 159.209 159.209 129.475 197.097 109.213C235.446 88.7037 273.547 78 378.384 78Z" stroke="#08080A" stroke-width="12"/>
<path fill-rule="evenodd" clip-rule="evenodd" d="M378.384 77.5H1111.62C1216.59 77.5 1254.74 88.2361 1293.14 108.772C1331.11 129.082 1360.92 158.885 1381.23 196.861C1401.76 235.26 1412.5 273.405 1412.5 378.384V2641.62C1412.5 2746.59 1401.76 2784.74 1381.23 2823.14C1360.92 2861.11 1331.11 2890.92 1293.14 2911.23C1254.74 2931.76 1216.59 2942.5 1111.62 2942.5H378.384C273.405 2942.5 235.26 2931.76 196.861 2911.23C158.885 2890.92 129.082 2861.11 108.772 2823.14C88.2361 2784.74 77.5 2746.59 77.5 2641.62V378.384C77.5 273.405 88.2361 235.26 108.772 196.861C129.082 158.885 158.885 129.082 196.861 108.772C235.26 88.2361 273.405 77.5 378.384 77.5Z" stroke="#08080A" stroke-width="11"/>
<path fill-rule="evenodd" clip-rule="evenodd" d="M378.384 77H1111.62C1216.74 77 1254.93 87.7685 1293.38 108.331C1331.44 128.688 1361.31 158.561 1381.67 196.625C1402.23 235.074 1413 273.264 1413 378.384V2641.62C1413 2746.74 1402.23 2784.93 1381.67 2823.38C1361.31 2861.44 1331.44 2891.31 1293.38 2911.67C1254.93 2932.23 1216.74 2943 1111.62 2943H378.384C273.264 2943 235.074 2932.23 196.625 2911.67C158.561 2891.31 128.688 2861.44 108.331 2823.38C87.7685 2784.93 77 2746.74 77 2641.62V378.384C77 273.264 87.7685 235.074 108.331 196.625C128.688 158.561 158.561 128.688 196.625 108.331C235.074 87.7685 273.264 77 378.384 77Z" stroke="#141416" stroke-width="10"/>
<path fill-rule="evenodd" clip-rule="evenodd" d="M378.384 76.5H1111.62C1216.88 76.5 1255.11 87.3009 1293.61 107.891C1331.76 128.295 1361.71 158.237 1382.11 196.389C1402.7 234.888 1413.5 273.122 1413.5 378.384V2641.62C1413.5 2746.88 1402.7 2785.11 1382.11 2823.61C1361.71 2861.76 1331.76 2891.71 1293.61 2912.11C1255.11 2932.7 1216.88 2943.5 1111.62 2943.5H378.384C273.122 2943.5 234.888 2932.7 196.389 2912.11C158.237 2891.71 128.295 2861.76 107.891 2823.61C87.3009 2785.11 76.5 2746.88 76.5 2641.62V378.384C76.5 273.122 87.3009 234.888 107.891 196.389C128.295 158.237 158.237 128.295 196.389 107.891C234.888 87.3009 273.122 76.5 378.384 76.5Z" stroke="#2C2C2C" stroke-width="9"/>
<path fill-rule="evenodd" clip-rule="evenodd" d="M378.384 76H1111.62C1217.02 76 1255.3 86.8333 1293.85 107.45C1332.09 127.901 1362.1 157.913 1382.55 196.153C1403.17 234.702 1414 272.981 1414 378.384V2641.62C1414 2747.02 1403.17 2785.3 1382.55 2823.85C1362.1 2862.09 1332.09 2892.1 1293.85 2912.55C1255.3 2933.17 1217.02 2944 1111.62 2944H378.384C272.981 2944 234.702 2933.17 196.153 2912.55C157.913 2892.1 127.901 2862.09 107.45 2823.85C86.8333 2785.3 76 2747.02 76 2641.62V378.384C76 272.981 86.8333 234.702 107.45 196.153C127.901 157.913 157.913 127.901 196.153 107.45C234.702 86.8333 272.981 76 378.384 76Z" stroke="#3D3C3E" stroke-width="8"/>
<path fill-rule="evenodd" clip-rule="evenodd" d="M1111.62 74C1217.59 74 1256.04 84.963 1294.79 105.686C1333.38 126.327 1363.67 156.616 1384.31 195.21C1405.04 233.959 1416 272.414 1416 378.384V2641.62C1416 2747.59 1405.04 2786.04 1384.31 2824.79C1363.67 2863.38 1333.38 2893.67 1294.79 2914.31C1256.04 2935.04 1217.59 2946 1111.62 2946H378.384C272.414 2946 233.959 2935.04 195.21 2914.31C156.616 2893.67 126.327 2863.38 105.686 2824.79C84.963 2786.04 74 2747.59 74 2641.62V378.384C74 272.414 84.963 233.959 105.686 195.21C126.327 156.616 156.616 126.327 195.21 105.686C233.959 84.963 272.414 74 378.384 74H1111.62Z" stroke="#3C3C3C" stroke-width="4"/>
<path fill-rule="evenodd" clip-rule="evenodd" d="M1111.62 73.5C1217.73 73.5 1256.23 84.4954 1295.03 105.245C1333.71 125.933 1364.07 156.291 1384.75 194.974C1405.5 233.773 1416.5 272.273 1416.5 378.384V2641.62C1416.5 2747.73 1405.5 2786.23 1384.75 2825.03C1364.07 2863.71 1333.71 2894.07 1295.03 2914.75C1256.23 2935.5 1217.73 2946.5 1111.62 2946.5H378.384C272.273 2946.5 233.773 2935.5 194.974 2914.75C156.291 2894.07 125.933 2863.71 105.245 2825.03C84.4954 2786.23 73.5 2747.73 73.5 2641.62V378.384C73.5 272.273 84.4954 233.773 105.245 194.974C125.933 156.291 156.291 125.933 194.974 105.245C233.773 84.4954 272.273 73.5 378.384 73.5H1111.62Z" stroke="#747477" stroke-width="3"/>
<path fill-rule="evenodd" clip-rule="evenodd" d="M1111.62 73C1217.87 73 1256.41 84.0278 1295.26 104.804C1334.03 125.539 1364.46 155.967 1385.2 194.739C1405.97 233.587 1417 272.131 1417 378.384V2641.62C1417 2747.87 1405.97 2786.41 1385.2 2825.26C1364.46 2864.03 1334.03 2894.46 1295.26 2915.2C1256.41 2935.97 1217.87 2947 1111.62 2947H378.384C272.131 2947 233.587 2935.97 194.739 2915.2C155.967 2894.46 125.539 2864.03 104.804 2825.26C84.0278 2786.41 73 2747.87 73 2641.62V378.384C73 272.131 84.0278 233.587 104.804 194.739C125.539 155.967 155.967 125.539 194.739 104.804C233.587 84.0278 272.131 73 378.384 73H1111.62Z" stroke="#929292" stroke-width="2"/>
<path fill-rule="evenodd" clip-rule="evenodd" d="M1111.62 72.5C1218.01 72.5 1256.6 83.5602 1295.5 104.363C1334.36 125.146 1364.85 155.643 1385.64 194.503C1406.44 233.401 1417.5 271.989 1417.5 378.384V2641.62C1417.5 2748.01 1406.44 2786.6 1385.64 2825.5C1364.85 2864.36 1334.36 2894.85 1295.5 2915.64C1256.6 2936.44 1218.01 2947.5 1111.62 2947.5H378.384C271.989 2947.5 233.401 2936.44 194.503 2915.64C155.643 2894.85 125.146 2864.36 104.363 2825.5C83.5602 2786.6 72.5 2748.01 72.5 2641.62V378.384C72.5 271.989 83.5602 233.401 104.363 194.503C125.146 155.643 155.643 125.146 194.503 104.363C233.401 83.5602 271.989 72.5 378.384 72.5H1111.62Z" stroke="#ABABAB"/>
</g>
</g>
<mask id="mask3_1_432" style="mask-type:luminance" maskUnits="userSpaceOnUse" x="54" y="53" width="1383" height="2892">
<path d="M1133.18 53C1238.82 53 1277.13 63.9998 1315.76 84.6552C1354.38 105.311 1384.69 135.622 1405.34 174.244C1426 212.866 1437 251.175 1437 356.82V2641.18C1437 2746.82 1426 2785.13 1405.34 2823.76C1384.69 2862.38 1354.38 2892.69 1315.76 2913.34C1277.13 2934 1238.82 2945 1133.18 2945H357.82C252.175 2945 213.866 2934 175.244 2913.34C136.622 2892.69 106.311 2862.38 85.6552 2823.76C64.9998 2785.13 54 2746.82 54 2641.18V356.82C54 251.175 64.9998 212.866 85.6552 174.244C106.311 135.622 136.622 105.311 175.244 84.6552C213.866 63.9998 252.175 53 357.82 53L1133.18 53ZM1143.87 100H346.133C260.547 100 229.512 108.911 198.223 125.645C166.934 142.378 142.378 166.934 125.645 198.223C108.911 229.512 100 260.547 100 346.133V2649.87C100 2735.45 108.911 2766.49 125.645 2797.78C142.378 2829.07 166.934 2853.62 198.223 2870.36C229.512 2887.09 260.547 2896 346.133 2896H1143.87C1229.45 2896 1260.49 2887.09 1291.78 2870.36C1323.07 2853.62 1347.62 2829.07 1364.36 2797.78C1381.09 2766.49 1390 2735.45 1390 2649.87V346.133C1390 260.547 1381.09 229.512 1364.36 198.223C1347.62 166.934 1323.07 142.378 1291.78 125.645C1260.49 108.911 1229.45 100 1143.87 100Z" fill="white"/>
</mask>
<g mask="url(#mask3_1_432)">
<path d="M1139.54 71C1236.71 71 1271.95 81.118 1307.48 100.117C1343 119.117 1370.88 146.998 1389.88 182.524C1408.88 218.05 1419 253.288 1419 350.464V2645.54C1419 2742.71 1408.88 2777.95 1389.88 2813.48C1370.88 2849 1343 2876.88 1307.48 2895.88C1271.95 2914.88 1236.71 2925 1139.54 2925H350.464C253.288 2925 218.05 2914.88 182.524 2895.88C146.998 2876.88 119.117 2849 100.117 2813.48C81.118 2777.95 71 2742.71 71 2645.54V350.464C71 253.288 81.118 218.05 100.117 182.524C119.117 146.998 146.998 119.117 182.524 100.117C218.05 81.118 253.288 71 350.464 71H1139.54ZM1143.87 100H346.133C260.547 100 229.512 108.911 198.223 125.645C166.934 142.378 142.378 166.934 125.645 198.223C108.911 229.512 100 260.547 100 346.133V2649.87C100 2735.45 108.911 2766.49 125.645 2797.78C142.378 2829.07 166.934 2853.62 198.223 2870.36C229.512 2887.09 260.547 2896 346.133 2896H1143.87C1229.45 2896 1260.49 2887.09 1291.78 2870.36C1323.07 2853.62 1347.62 2829.07 1364.36 2797.78C1381.09 2766.49 1390 2735.45 1390 2649.87V346.133C1390 260.547 1381.09 229.512 1364.36 198.223C1347.62 166.934 1323.07 142.378 1291.78 125.645C1260.49 108.911 1229.45 100 1143.87 100Z" fill="black"/>
<g filter="url(#filter0_i_1_432)">
<path d="M1139.54 71C1236.71 71 1271.95 81.118 1307.48 100.117C1343 119.117 1370.88 146.998 1389.88 182.524C1408.88 218.05 1419 253.288 1419 350.464V2645.54C1419 2742.71 1408.88 2777.95 1389.88 2813.48C1370.88 2849 1343 2876.88 1307.48 2895.88C1271.95 2914.88 1236.71 2925 1139.54 2925H350.464C253.288 2925 218.05 2914.88 182.524 2895.88C146.998 2876.88 119.117 2849 100.117 2813.48C81.118 2777.95 71 2742.71 71 2645.54V350.464C71 253.288 81.118 218.05 100.117 182.524C119.117 146.998 146.998 119.117 182.524 100.117C218.05 81.118 253.288 71 350.464 71H1139.54ZM1143.87 100H346.133C260.547 100 229.512 108.911 198.223 125.645C166.934 142.378 142.378 166.934 125.645 198.223C108.911 229.512 100 260.547 100 346.133V2649.87C100 2735.45 108.911 2766.49 125.645 2797.78C142.378 2829.07 166.934 2853.62 198.223 2870.36C229.512 2887.09 260.547 2896 346.133 2896H1143.87C1229.45 2896 1260.49 2887.09 1291.78 2870.36C1323.07 2853.62 1347.62 2829.07 1364.36 2797.78C1381.09 2766.49 1390 2735.45 1390 2649.87V346.133C1390 260.547 1381.09 229.512 1364.36 198.223C1347.62 166.934 1323.07 142.378 1291.78 125.645C1260.49 108.911 1229.45 100 1143.87 100Z" fill="black"/>
</g>
<path fill-rule="evenodd" clip-rule="evenodd" d="M350.464 71.5H1139.54C1236.57 71.5 1271.76 81.5856 1307.24 100.558C1342.68 119.511 1370.49 147.322 1389.44 182.76C1408.41 218.236 1418.5 253.43 1418.5 350.464V2645.54C1418.5 2742.57 1408.41 2777.76 1389.44 2813.24C1370.49 2848.68 1342.68 2876.49 1307.24 2895.44C1271.76 2914.41 1236.57 2924.5 1139.54 2924.5H350.464C253.43 2924.5 218.236 2914.41 182.76 2895.44C147.322 2876.49 119.511 2848.68 100.558 2813.24C81.5856 2777.76 71.5 2742.57 71.5 2645.54V350.464C71.5 253.43 81.5856 218.236 100.558 182.76C119.511 147.322 147.322 119.511 182.76 100.558C218.236 81.5856 253.43 71.5 350.464 71.5ZM1143.87 99.5H346.133C260.406 99.5 229.326 108.444 197.987 125.204C166.61 141.985 141.985 166.61 125.204 197.987C108.444 229.326 99.5 260.406 99.5 346.133V2649.87C99.5 2735.59 108.444 2766.67 125.204 2798.01C141.985 2829.39 166.61 2854.02 197.987 2870.8C229.326 2887.56 260.406 2896.5 346.133 2896.5H1143.87C1229.59 2896.5 1260.67 2887.56 1292.01 2870.8C1323.39 2854.02 1348.02 2829.39 1364.8 2798.01C1381.56 2766.67 1390.5 2735.59 1390.5 2649.87V346.133C1390.5 260.406 1381.56 229.326 1364.8 197.987C1348.02 166.61 1323.39 141.985 1292.01 125.204C1260.67 108.444 1229.59 99.5 1143.87 99.5Z" stroke="url(#paint8_linear_1_432)"/>
</g>
<mask id="mask4_1_432" style="mask-type:luminance" maskUnits="userSpaceOnUse" x="54" y="53" width="1383" height="2892">
<path d="M1133.18 53C1238.82 53 1277.13 63.9998 1315.76 84.6552C1354.38 105.311 1384.69 135.622 1405.34 174.244C1426 212.866 1437 251.175 1437 356.82V2641.18C1437 2746.82 1426 2785.13 1405.34 2823.76C1384.69 2862.38 1354.38 2892.69 1315.76 2913.34C1277.13 2934 1238.82 2945 1133.18 2945H357.82C252.175 2945 213.866 2934 175.244 2913.34C136.622 2892.69 106.311 2862.38 85.6552 2823.76C64.9998 2785.13 54 2746.82 54 2641.18V356.82C54 251.175 64.9998 212.866 85.6552 174.244C106.311 135.622 136.622 105.311 175.244 84.6552C213.866 63.9998 252.175 53 357.82 53L1133.18 53ZM1143.87 100H346.133C260.547 100 229.512 108.911 198.223 125.645C166.934 142.378 142.378 166.934 125.645 198.223C108.911 229.512 100 260.547 100 346.133V2649.87C100 2735.45 108.911 2766.49 125.645 2797.78C142.378 2829.07 166.934 2853.62 198.223 2870.36C229.512 2887.09 260.547 2896 346.133 2896H1143.87C1229.45 2896 1260.49 2887.09 1291.78 2870.36C1323.07 2853.62 1347.62 2829.07 1364.36 2797.78C1381.09 2766.49 1390 2735.45 1390 2649.87V346.133C1390 260.547 1381.09 229.512 1364.36 198.223C1347.62 166.934 1323.07 142.378 1291.78 125.645C1260.49 108.911 1229.45 100 1143.87 100Z" fill="white"/>
</mask>
<g mask="url(#mask4_1_432)">
<path d="M611.706 73C612.921 73 615.214 75.3842 618.584 80.1537C618.959 80.6842 619.567 80.9997 620.217 81H623.482H866.482H869.747C870.396 80.9997 871.005 80.6842 871.38 80.1537C874.749 75.3842 877.043 73 878.258 73H1137.54C1234.71 73 1269.95 83.118 1305.48 102.117C1341 121.117 1368.88 148.998 1387.88 184.524C1406.88 220.05 1417 255.288 1417 352.464V2643.54C1417 2740.71 1406.88 2775.95 1387.88 2811.48C1368.88 2847 1341 2874.88 1305.48 2893.88C1269.95 2912.88 1234.71 2923 1137.54 2923H352.464C255.288 2923 220.05 2912.88 184.524 2893.88C148.998 2874.88 121.117 2847 102.117 2811.48C83.118 2775.95 73 2740.71 73 2643.54V352.464C73 255.288 83.118 220.05 102.117 184.524C121.117 148.998 148.998 121.117 184.524 102.117C220.05 83.118 255.288 73 352.464 73H611.706Z" fill="black"/>
<g filter="url(#filter1_i_1_432)">
<path d="M611.706 73C612.921 73 615.214 75.3842 618.584 80.1537C618.959 80.6842 619.567 80.9997 620.217 81H623.482H866.482H869.747C870.396 80.9997 871.005 80.6842 871.38 80.1537C874.749 75.3842 877.043 73 878.258 73H1137.54C1234.71 73 1269.95 83.118 1305.48 102.117C1341 121.117 1368.88 148.998 1387.88 184.524C1406.88 220.05 1417 255.288 1417 352.464V2643.54C1417 2740.71 1406.88 2775.95 1387.88 2811.48C1368.88 2847 1341 2874.88 1305.48 2893.88C1269.95 2912.88 1234.71 2923 1137.54 2923H352.464C255.288 2923 220.05 2912.88 184.524 2893.88C148.998 2874.88 121.117 2847 102.117 2811.48C83.118 2775.95 73 2740.71 73 2643.54V352.464C73 255.288 83.118 220.05 102.117 184.524C121.117 148.998 148.998 121.117 184.524 102.117C220.05 83.118 255.288 73 352.464 73H611.706Z" fill="black"/>
</g>
<path fill-rule="evenodd" clip-rule="evenodd" d="M352.464 73.5H611.706C612.871 73.5 615.006 75.9559 618.176 80.4421C618.644 81.1052 619.405 81.4997 620.217 81.5H623.482H866.482H869.747C870.559 81.4997 871.32 81.1052 871.788 80.4422C874.958 75.9559 877.093 73.5 878.258 73.5H1137.54C1234.57 73.5 1269.76 83.5856 1305.24 102.558C1340.68 121.511 1368.49 149.322 1387.44 184.76C1406.41 220.236 1416.5 255.43 1416.5 352.464V2643.54C1416.5 2740.57 1406.41 2775.76 1387.44 2811.24C1368.49 2846.68 1340.68 2874.49 1305.24 2893.44C1269.76 2912.41 1234.57 2922.5 1137.54 2922.5H352.464C255.43 2922.5 220.236 2912.41 184.76 2893.44C149.322 2874.49 121.511 2846.68 102.558 2811.24C83.5856 2775.76 73.5 2740.57 73.5 2643.54V352.464C73.5 255.43 83.5856 220.236 102.558 184.76C121.511 149.322 149.322 121.511 184.76 102.558C220.236 83.5856 255.43 73.5 352.464 73.5Z" stroke="url(#paint9_linear_1_432)"/>
</g>
<mask id="mask5_1_432" style="mask-type:luminance" maskUnits="userSpaceOnUse" x="54" y="53" width="1383" height="2892">
<path d="M1133.18 53C1238.82 53 1277.13 63.9998 1315.76 84.6552C1354.38 105.311 1384.69 135.622 1405.34 174.244C1426 212.866 1437 251.175 1437 356.82V2641.18C1437 2746.82 1426 2785.13 1405.34 2823.76C1384.69 2862.38 1354.38 2892.69 1315.76 2913.34C1277.13 2934 1238.82 2945 1133.18 2945H357.82C252.175 2945 213.866 2934 175.244 2913.34C136.622 2892.69 106.311 2862.38 85.6552 2823.76C64.9998 2785.13 54 2746.82 54 2641.18V356.82C54 251.175 64.9998 212.866 85.6552 174.244C106.311 135.622 136.622 105.311 175.244 84.6552C213.866 63.9998 252.175 53 357.82 53L1133.18 53ZM1143.87 100H346.133C260.547 100 229.512 108.911 198.223 125.645C166.934 142.378 142.378 166.934 125.645 198.223C108.911 229.512 100 260.547 100 346.133V2649.87C100 2735.45 108.911 2766.49 125.645 2797.78C142.378 2829.07 166.934 2853.62 198.223 2870.36C229.512 2887.09 260.547 2896 346.133 2896H1143.87C1229.45 2896 1260.49 2887.09 1291.78 2870.36C1323.07 2853.62 1347.62 2829.07 1364.36 2797.78C1381.09 2766.49 1390 2735.45 1390 2649.87V346.133C1390 260.547 1381.09 229.512 1364.36 198.223C1347.62 166.934 1323.07 142.378 1291.78 125.645C1260.49 108.911 1229.45 100 1143.87 100Z" fill="white"/>
</mask>
<g mask="url(#mask5_1_432)">
<path d="M1438 345H1418V364H1438V345Z" fill="url(#paint10_linear_1_432)"/>
<path d="M1438 2633H1418V2652H1438V2633Z" fill="url(#paint11_linear_1_432)"/>
<path d="M55 345H75V364H55V345Z" fill="url(#paint12_linear_1_432)"/>
<path d="M55 2633H75V2652H55V2633Z" fill="url(#paint13_linear_1_432)"/>
</g>
<g filter="url(#filter2_iiiiiiiif_1_432)">
<path d="M54 842.125H48C45.7909 842.125 44 843.916 44 846.125V1045.13C44 1047.33 45.7909 1049.13 48 1049.13H54V842.125Z" fill="#252525"/>
</g>
<g filter="url(#filter3_iiiiiiiif_1_432)">
<path d="M54 1105.13H48C45.7909 1105.13 44 1106.92 44 1109.13V1308.13C44 1310.33 45.7909 1312.13 48 1312.13H54V1105.13Z" fill="#252525"/>
</g>
<g filter="url(#filter4_iiiiiiiif_1_432)">
<path d="M54 620.125H48C45.7909 620.125 44 621.916 44 624.125V743.125C44 745.334 45.7909 747.125 48 747.125H54V620.125Z" fill="#252525"/>
</g>
<g filter="url(#filter5_iiiiiiiif_1_432)">
<path d="M1437 914.125H1443C1445.21 914.125 1447 915.916 1447 918.125V1236.13C1447 1238.33 1445.21 1240.13 1443 1240.13H1437V914.125Z" fill="#252525"/>
</g>
<path fill-rule="evenodd" clip-rule="evenodd" d="M609 161H881C911.928 161 937 186.072 937 217C937 247.928 911.928 273 881 273H609C578.072 273 553 247.928 553 217C553 186.072 578.072 161 609 161Z" fill="black"/>
<path fill-rule="evenodd" clip-rule="evenodd" d="M883 175.499C894.46 175.499 904.835 180.144 912.345 187.654C919.855 195.164 924.5 205.539 924.5 216.999C924.5 228.459 919.855 238.834 912.345 246.344C904.835 253.854 894.46 258.499 883 258.499H733C721.54 258.499 711.165 253.854 703.655 246.344C696.145 238.834 691.5 228.459 691.5 216.999C691.5 205.539 696.145 195.164 703.655 187.654C711.165 180.144 721.54 175.499 733 175.499H883Z" fill="black" stroke="black" stroke-width="25"/>
<path fill-rule="evenodd" clip-rule="evenodd" d="M609 175.5C620.46 175.5 630.835 180.145 638.345 187.655C645.855 195.165 650.5 205.54 650.5 217C650.5 228.46 645.855 238.835 638.345 246.345C630.835 253.855 620.46 258.5 609 258.5C597.54 258.5 587.165 253.855 579.655 246.345C572.145 238.835 567.5 228.46 567.5 217C567.5 205.54 572.145 195.165 579.655 187.655C587.165 180.145 597.54 175.5 609 175.5Z" fill="black" stroke="black" stroke-width="25"/>
<g filter="url(#filter6_iiii_1_432)">
<path d="M609 233.001C617.837 233.001 625 225.837 625 217.001C625 208.164 617.837 201.001 609 201.001C600.163 201.001 593 208.164 593 217.001C593 225.837 600.163 233.001 609 233.001Z" fill="url(#paint14_linear_1_432)"/>
</g>
<path d="M609 229.001C615.627 229.001 621 223.628 621 217.001C621 210.373 615.627 205.001 609 205.001C602.373 205.001 597 210.373 597 217.001C597 223.628 602.373 229.001 609 229.001Z" fill="url(#paint15_radial_1_432)"/>
<g filter="url(#filter7_d_1_432)">
<path d="M609 229.001C615.627 229.001 621 223.628 621 217.001C621 210.373 615.627 205.001 609 205.001C602.373 205.001 597 210.373 597 217.001C597 223.628 602.373 229.001 609 229.001Z" fill="url(#paint16_radial_1_432)" shape-rendering="crispEdges"/>
</g>
<path d="M609 229.001C615.627 229.001 621 223.628 621 217.001C621 210.373 615.627 205.001 609 205.001C602.373 205.001 597 210.373 597 217.001C597 223.628 602.373 229.001 609 229.001Z" fill="url(#paint17_radial_1_432)"/>
<g filter="url(#filter8_ii_1_432)">
<path d="M609 229.001C615.627 229.001 621 223.628 621 217.001C621 210.373 615.627 205.001 609 205.001C602.373 205.001 597 210.373 597 217.001C597 223.628 602.373 229.001 609 229.001Z" fill="url(#paint18_radial_1_432)"/>
</g>
<defs>
<filter id="filter0_i_1_432" x="71" y="71" width="1348" height="2855" filterUnits="userSpaceOnUse" color-interpolation-filters="sRGB">
<feFlood flood-opacity="0" result="BackgroundImageFix"/>
<feBlend mode="normal" in="SourceGraphic" in2="BackgroundImageFix" result="shape"/>
<feColorMatrix in="SourceAlpha" type="matrix" values="0 0 0 0 0 0 0 0 0 0 0 0 0 0 0 0 0 0 127 0" result="hardAlpha"/>
<feOffset dy="1"/>
<feGaussianBlur stdDeviation="4"/>
<feComposite in2="hardAlpha" operator="arithmetic" k2="-1" k3="1"/>
<feColorMatrix type="matrix" values="0 0 0 0 0.305882 0 0 0 0 0.309804 0 0 0 0 0.309804 0 0 0 1 0"/>
<feBlend mode="normal" in2="shape" result="effect1_innerShadow_1_432"/>
</filter>
<filter id="filter1_i_1_432" x="73" y="73" width="1344" height="2851" filterUnits="userSpaceOnUse" color-interpolation-filters="sRGB">
<feFlood flood-opacity="0" result="BackgroundImageFix"/>
<feBlend mode="normal" in="SourceGraphic" in2="BackgroundImageFix" result="shape"/>
<feColorMatrix in="SourceAlpha" type="matrix" values="0 0 0 0 0 0 0 0 0 0 0 0 0 0 0 0 0 0 127 0" result="hardAlpha"/>
<feOffset dy="1"/>
<feGaussianBlur stdDeviation="4"/>
<feComposite in2="hardAlpha" operator="arithmetic" k2="-1" k3="1"/>
<feColorMatrix type="matrix" values="0 0 0 0 0.305882 0 0 0 0 0.309804 0 0 0 0 0.309804 0 0 0 1 0"/>
<feBlend mode="normal" in2="shape" result="effect1_innerShadow_1_432"/>
</filter>
<filter id="filter2_iiiiiiiif_1_432" x="43" y="836.125" width="15" height="221" filterUnits="userSpaceOnUse" color-interpolation-filters="sRGB">
<feFlood flood-opacity="0" result="BackgroundImageFix"/>
<feBlend mode="normal" in="SourceGraphic" in2="BackgroundImageFix" result="shape"/>
<feColorMatrix in="SourceAlpha" type="matrix" values="0 0 0 0 0 0 0 0 0 0 0 0 0 0 0 0 0 0 127 0" result="hardAlpha"/>
<feOffset dy="-29"/>
<feGaussianBlur stdDeviation="3"/>
<feComposite in2="hardAlpha" operator="arithmetic" k2="-1" k3="1"/>
<feColorMatrix type="matrix" values="0 0 0 0 0 0 0 0 0 0 0 0 0 0 0 0 0 0 1 0"/>
<feBlend mode="normal" in2="shape" result="effect1_innerShadow_1_432"/>
<feColorMatrix in="SourceAlpha" type="matrix" values="0 0 0 0 0 0 0 0 0 0 0 0 0 0 0 0 0 0 127 0" result="hardAlpha"/>
<feOffset dx="20" dy="70"/>
<feGaussianBlur stdDeviation="1"/>
<feComposite in2="hardAlpha" operator="arithmetic" k2="-1" k3="1"/>
<feColorMatrix type="matrix" values="0 0 0 0 0 0 0 0 0 0 0 0 0 0 0 0 0 0 0.2 0"/>
<feBlend mode="normal" in2="effect1_innerShadow_1_432" result="effect2_innerShadow_1_432"/>
<feColorMatrix in="SourceAlpha" type="matrix" values="0 0 0 0 0 0 0 0 0 0 0 0 0 0 0 0 0 0 127 0" result="hardAlpha"/>
<feOffset dy="-9"/>
<feGaussianBlur stdDeviation="3"/>
<feComposite in2="hardAlpha" operator="arithmetic" k2="-1" k3="1"/>
<feColorMatrix type="matrix" values="0 0 0 0 1 0 0 0 0 1 0 0 0 0 1 0 0 0 1 0"/>
<feBlend mode="normal" in2="effect2_innerShadow_1_432" result="effect3_innerShadow_1_432"/>
<feColorMatrix in="SourceAlpha" type="matrix" values="0 0 0 0 0 0 0 0 0 0 0 0 0 0 0 0 0 0 127 0" result="hardAlpha"/>
<feOffset dy="-12"/>
<feGaussianBlur stdDeviation="1"/>
<feComposite in2="hardAlpha" operator="arithmetic" k2="-1" k3="1"/>
<feColorMatrix type="matrix" values="0 0 0 0 1 0 0 0 0 1 0 0 0 0 0.992157 0 0 0 1 0"/>
<feBlend mode="normal" in2="effect3_innerShadow_1_432" result="effect4_innerShadow_1_432"/>
<feColorMatrix in="SourceAlpha" type="matrix" values="0 0 0 0 0 0 0 0 0 0 0 0 0 0 0 0 0 0 127 0" result="hardAlpha"/>
<feOffset dy="-5"/>
<feGaussianBlur stdDeviation="3"/>
<feComposite in2="hardAlpha" operator="arithmetic" k2="-1" k3="1"/>
<feColorMatrix type="matrix" values="0 0 0 0 0.194152 0 0 0 0 0.183246 0 0 0 0 0.183246 0 0 0 1 0"/>
<feBlend mode="normal" in2="effect4_innerShadow_1_432" result="effect5_innerShadow_1_432"/>
<feColorMatrix in="SourceAlpha" type="matrix" values="0 0 0 0 0 0 0 0 0 0 0 0 0 0 0 0 0 0 127 0" result="hardAlpha"/>
<feOffset dy="35"/>
<feGaussianBlur stdDeviation="4"/>
<feComposite in2="hardAlpha" operator="arithmetic" k2="-1" k3="1"/>
<feColorMatrix type="matrix" values="0 0 0 0 0.161855 0 0 0 0 0.158077 0 0 0 0 0.141706 0 0 0 1 0"/>
<feBlend mode="normal" in2="effect5_innerShadow_1_432" result="effect6_innerShadow_1_432"/>
<feColorMatrix in="SourceAlpha" type="matrix" values="0 0 0 0 0 0 0 0 0 0 0 0 0 0 0 0 0 0 127 0" result="hardAlpha"/>
<feOffset dy="28"/>
<feGaussianBlur stdDeviation="4"/>
<feComposite in2="hardAlpha" operator="arithmetic" k2="-1" k3="1"/>
<feColorMatrix type="matrix" values="0 0 0 0 1 0 0 0 0 1 0 0 0 0 1 0 0 0 1 0"/>
<feBlend mode="normal" in2="effect6_innerShadow_1_432" result="effect7_innerShadow_1_432"/>
<feColorMatrix in="SourceAlpha" type="matrix" values="0 0 0 0 0 0 0 0 0 0 0 0 0 0 0 0 0 0 127 0" result="hardAlpha"/>
<feOffset dx="4" dy="8"/>
<feGaussianBlur stdDeviation="2"/>
<feComposite in2="hardAlpha" operator="arithmetic" k2="-1" k3="1"/>
<feColorMatrix type="matrix" values="0 0 0 0 0 0 0 0 0 0 0 0 0 0 0 0 0 0 1 0"/>
<feBlend mode="normal" in2="effect7_innerShadow_1_432" result="effect8_innerShadow_1_432"/>
<feGaussianBlur stdDeviation="0.5" result="effect9_foregroundBlur_1_432"/>
</filter>
<filter id="filter3_iiiiiiiif_1_432" x="43" y="1099.13" width="15" height="221" filterUnits="userSpaceOnUse" color-interpolation-filters="sRGB">
<feFlood flood-opacity="0" result="BackgroundImageFix"/>
<feBlend mode="normal" in="SourceGraphic" in2="BackgroundImageFix" result="shape"/>
<feColorMatrix in="SourceAlpha" type="matrix" values="0 0 0 0 0 0 0 0 0 0 0 0 0 0 0 0 0 0 127 0" result="hardAlpha"/>
<feOffset dy="-29"/>
<feGaussianBlur stdDeviation="3"/>
<feComposite in2="hardAlpha" operator="arithmetic" k2="-1" k3="1"/>
<feColorMatrix type="matrix" values="0 0 0 0 0 0 0 0 0 0 0 0 0 0 0 0 0 0 1 0"/>
<feBlend mode="normal" in2="shape" result="effect1_innerShadow_1_432"/>
<feColorMatrix in="SourceAlpha" type="matrix" values="0 0 0 0 0 0 0 0 0 0 0 0 0 0 0 0 0 0 127 0" result="hardAlpha"/>
<feOffset dx="20" dy="70"/>
<feGaussianBlur stdDeviation="1"/>
<feComposite in2="hardAlpha" operator="arithmetic" k2="-1" k3="1"/>
<feColorMatrix type="matrix" values="0 0 0 0 0 0 0 0 0 0 0 0 0 0 0 0 0 0 0.2 0"/>
<feBlend mode="normal" in2="effect1_innerShadow_1_432" result="effect2_innerShadow_1_432"/>
<feColorMatrix in="SourceAlpha" type="matrix" values="0 0 0 0 0 0 0 0 0 0 0 0 0 0 0 0 0 0 127 0" result="hardAlpha"/>
<feOffset dy="-9"/>
<feGaussianBlur stdDeviation="3"/>
<feComposite in2="hardAlpha" operator="arithmetic" k2="-1" k3="1"/>
<feColorMatrix type="matrix" values="0 0 0 0 1 0 0 0 0 1 0 0 0 0 1 0 0 0 1 0"/>
<feBlend mode="normal" in2="effect2_innerShadow_1_432" result="effect3_innerShadow_1_432"/>
<feColorMatrix in="SourceAlpha" type="matrix" values="0 0 0 0 0 0 0 0 0 0 0 0 0 0 0 0 0 0 127 0" result="hardAlpha"/>
<feOffset dy="-12"/>
<feGaussianBlur stdDeviation="1"/>
<feComposite in2="hardAlpha" operator="arithmetic" k2="-1" k3="1"/>
<feColorMatrix type="matrix" values="0 0 0 0 1 0 0 0 0 1 0 0 0 0 0.992157 0 0 0 1 0"/>
<feBlend mode="normal" in2="effect3_innerShadow_1_432" result="effect4_innerShadow_1_432"/>
<feColorMatrix in="SourceAlpha" type="matrix" values="0 0 0 0 0 0 0 0 0 0 0 0 0 0 0 0 0 0 127 0" result="hardAlpha"/>
<feOffset dy="-5"/>
<feGaussianBlur stdDeviation="3"/>
<feComposite in2="hardAlpha" operator="arithmetic" k2="-1" k3="1"/>
<feColorMatrix type="matrix" values="0 0 0 0 0.194152 0 0 0 0 0.183246 0 0 0 0 0.183246 0 0 0 1 0"/>
<feBlend mode="normal" in2="effect4_innerShadow_1_432" result="effect5_innerShadow_1_432"/>
<feColorMatrix in="SourceAlpha" type="matrix" values="0 0 0 0 0 0 0 0 0 0 0 0 0 0 0 0 0 0 127 0" result="hardAlpha"/>
<feOffset dy="35"/>
<feGaussianBlur stdDeviation="4"/>
<feComposite in2="hardAlpha" operator="arithmetic" k2="-1" k3="1"/>
<feColorMatrix type="matrix" values="0 0 0 0 0.161855 0 0 0 0 0.158077 0 0 0 0 0.141706 0 0 0 1 0"/>
<feBlend mode="normal" in2="effect5_innerShadow_1_432" result="effect6_innerShadow_1_432"/>
<feColorMatrix in="SourceAlpha" type="matrix" values="0 0 0 0 0 0 0 0 0 0 0 0 0 0 0 0 0 0 127 0" result="hardAlpha"/>
<feOffset dy="28"/>
<feGaussianBlur stdDeviation="4"/>
<feComposite in2="hardAlpha" operator="arithmetic" k2="-1" k3="1"/>
<feColorMatrix type="matrix" values="0 0 0 0 1 0 0 0 0 1 0 0 0 0 1 0 0 0 1 0"/>
<feBlend mode="normal" in2="effect6_innerShadow_1_432" result="effect7_innerShadow_1_432"/>
<feColorMatrix in="SourceAlpha" type="matrix" values="0 0 0 0 0 0 0 0 0 0 0 0 0 0 0 0 0 0 127 0" result="hardAlpha"/>
<feOffset dx="4" dy="8"/>
<feGaussianBlur stdDeviation="2"/>
<feComposite in2="hardAlpha" operator="arithmetic" k2="-1" k3="1"/>
<feColorMatrix type="matrix" values="0 0 0 0 0 0 0 0 0 0 0 0 0 0 0 0 0 0 1 0"/>
<feBlend mode="normal" in2="effect7_innerShadow_1_432" result="effect8_innerShadow_1_432"/>
<feGaussianBlur stdDeviation="0.5" result="effect9_foregroundBlur_1_432"/>
</filter>
<filter id="filter4_iiiiiiiif_1_432" x="43" y="614.125" width="15" height="141" filterUnits="userSpaceOnUse" color-interpolation-filters="sRGB">
<feFlood flood-opacity="0" result="BackgroundImageFix"/>
<feBlend mode="normal" in="SourceGraphic" in2="BackgroundImageFix" result="shape"/>
<feColorMatrix in="SourceAlpha" type="matrix" values="0 0 0 0 0 0 0 0 0 0 0 0 0 0 0 0 0 0 127 0" result="hardAlpha"/>
<feOffset dy="-29"/>
<feGaussianBlur stdDeviation="3"/>
<feComposite in2="hardAlpha" operator="arithmetic" k2="-1" k3="1"/>
<feColorMatrix type="matrix" values="0 0 0 0 0 0 0 0 0 0 0 0 0 0 0 0 0 0 1 0"/>
<feBlend mode="normal" in2="shape" result="effect1_innerShadow_1_432"/>
<feColorMatrix in="SourceAlpha" type="matrix" values="0 0 0 0 0 0 0 0 0 0 0 0 0 0 0 0 0 0 127 0" result="hardAlpha"/>
<feOffset dx="20" dy="70"/>
<feGaussianBlur stdDeviation="1"/>
<feComposite in2="hardAlpha" operator="arithmetic" k2="-1" k3="1"/>
<feColorMatrix type="matrix" values="0 0 0 0 0 0 0 0 0 0 0 0 0 0 0 0 0 0 0.2 0"/>
<feBlend mode="normal" in2="effect1_innerShadow_1_432" result="effect2_innerShadow_1_432"/>
<feColorMatrix in="SourceAlpha" type="matrix" values="0 0 0 0 0 0 0 0 0 0 0 0 0 0 0 0 0 0 127 0" result="hardAlpha"/>
<feOffset dy="-9"/>
<feGaussianBlur stdDeviation="3"/>
<feComposite in2="hardAlpha" operator="arithmetic" k2="-1" k3="1"/>
<feColorMatrix type="matrix" values="0 0 0 0 1 0 0 0 0 1 0 0 0 0 1 0 0 0 1 0"/>
<feBlend mode="normal" in2="effect2_innerShadow_1_432" result="effect3_innerShadow_1_432"/>
<feColorMatrix in="SourceAlpha" type="matrix" values="0 0 0 0 0 0 0 0 0 0 0 0 0 0 0 0 0 0 127 0" result="hardAlpha"/>
<feOffset dy="-12"/>
<feGaussianBlur stdDeviation="1"/>
<feComposite in2="hardAlpha" operator="arithmetic" k2="-1" k3="1"/>
<feColorMatrix type="matrix" values="0 0 0 0 1 0 0 0 0 1 0 0 0 0 0.992157 0 0 0 1 0"/>
<feBlend mode="normal" in2="effect3_innerShadow_1_432" result="effect4_innerShadow_1_432"/>
<feColorMatrix in="SourceAlpha" type="matrix" values="0 0 0 0 0 0 0 0 0 0 0 0 0 0 0 0 0 0 127 0" result="hardAlpha"/>
<feOffset dy="-5"/>
<feGaussianBlur stdDeviation="3"/>
<feComposite in2="hardAlpha" operator="arithmetic" k2="-1" k3="1"/>
<feColorMatrix type="matrix" values="0 0 0 0 0.194152 0 0 0 0 0.183246 0 0 0 0 0.183246 0 0 0 1 0"/>
<feBlend mode="normal" in2="effect4_innerShadow_1_432" result="effect5_innerShadow_1_432"/>
<feColorMatrix in="SourceAlpha" type="matrix" values="0 0 0 0 0 0 0 0 0 0 0 0 0 0 0 0 0 0 127 0" result="hardAlpha"/>
<feOffset dy="35"/>
<feGaussianBlur stdDeviation="4"/>
<feComposite in2="hardAlpha" operator="arithmetic" k2="-1" k3="1"/>
<feColorMatrix type="matrix" values="0 0 0 0 0.161855 0 0 0 0 0.158077 0 0 0 0 0.141706 0 0 0 1 0"/>
<feBlend mode="normal" in2="effect5_innerShadow_1_432" result="effect6_innerShadow_1_432"/>
<feColorMatrix in="SourceAlpha" type="matrix" values="0 0 0 0 0 0 0 0 0 0 0 0 0 0 0 0 0 0 127 0" result="hardAlpha"/>
<feOffset dy="28"/>
<feGaussianBlur stdDeviation="4"/>
<feComposite in2="hardAlpha" operator="arithmetic" k2="-1" k3="1"/>
<feColorMatrix type="matrix" values="0 0 0 0 1 0 0 0 0 1 0 0 0 0 1 0 0 0 1 0"/>
<feBlend mode="normal" in2="effect6_innerShadow_1_432" result="effect7_innerShadow_1_432"/>
<feColorMatrix in="SourceAlpha" type="matrix" values="0 0 0 0 0 0 0 0 0 0 0 0 0 0 0 0 0 0 127 0" result="hardAlpha"/>
<feOffset dx="4" dy="8"/>
<feGaussianBlur stdDeviation="2"/>
<feComposite in2="hardAlpha" operator="arithmetic" k2="-1" k3="1"/>
<feColorMatrix type="matrix" values="0 0 0 0 0 0 0 0 0 0 0 0 0 0 0 0 0 0 1 0"/>
<feBlend mode="normal" in2="effect7_innerShadow_1_432" result="effect8_innerShadow_1_432"/>
<feGaussianBlur stdDeviation="0.5" result="effect9_foregroundBlur_1_432"/>
</filter>
<filter id="filter5_iiiiiiiif_1_432" x="1436" y="908.125" width="15" height="340" filterUnits="userSpaceOnUse" color-interpolation-filters="sRGB">
<feFlood flood-opacity="0" result="BackgroundImageFix"/>
<feBlend mode="normal" in="SourceGraphic" in2="BackgroundImageFix" result="shape"/>
<feColorMatrix in="SourceAlpha" type="matrix" values="0 0 0 0 0 0 0 0 0 0 0 0 0 0 0 0 0 0 127 0" result="hardAlpha"/>
<feOffset dy="-29"/>
<feGaussianBlur stdDeviation="3"/>
<feComposite in2="hardAlpha" operator="arithmetic" k2="-1" k3="1"/>
<feColorMatrix type="matrix" values="0 0 0 0 0 0 0 0 0 0 0 0 0 0 0 0 0 0 1 0"/>
<feBlend mode="normal" in2="shape" result="effect1_innerShadow_1_432"/>
<feColorMatrix in="SourceAlpha" type="matrix" values="0 0 0 0 0 0 0 0 0 0 0 0 0 0 0 0 0 0 127 0" result="hardAlpha"/>
<feOffset dx="20" dy="70"/>
<feGaussianBlur stdDeviation="1"/>
<feComposite in2="hardAlpha" operator="arithmetic" k2="-1" k3="1"/>
<feColorMatrix type="matrix" values="0 0 0 0 0 0 0 0 0 0 0 0 0 0 0 0 0 0 0.2 0"/>
<feBlend mode="normal" in2="effect1_innerShadow_1_432" result="effect2_innerShadow_1_432"/>
<feColorMatrix in="SourceAlpha" type="matrix" values="0 0 0 0 0 0 0 0 0 0 0 0 0 0 0 0 0 0 127 0" result="hardAlpha"/>
<feOffset dy="-9"/>
<feGaussianBlur stdDeviation="3"/>
<feComposite in2="hardAlpha" operator="arithmetic" k2="-1" k3="1"/>
<feColorMatrix type="matrix" values="0 0 0 0 1 0 0 0 0 1 0 0 0 0 1 0 0 0 1 0"/>
<feBlend mode="normal" in2="effect2_innerShadow_1_432" result="effect3_innerShadow_1_432"/>
<feColorMatrix in="SourceAlpha" type="matrix" values="0 0 0 0 0 0 0 0 0 0 0 0 0 0 0 0 0 0 127 0" result="hardAlpha"/>
<feOffset dy="-12"/>
<feGaussianBlur stdDeviation="1"/>
<feComposite in2="hardAlpha" operator="arithmetic" k2="-1" k3="1"/>
<feColorMatrix type="matrix" values="0 0 0 0 1 0 0 0 0 1 0 0 0 0 0.992157 0 0 0 1 0"/>
<feBlend mode="normal" in2="effect3_innerShadow_1_432" result="effect4_innerShadow_1_432"/>
<feColorMatrix in="SourceAlpha" type="matrix" values="0 0 0 0 0 0 0 0 0 0 0 0 0 0 0 0 0 0 127 0" result="hardAlpha"/>
<feOffset dy="-5"/>
<feGaussianBlur stdDeviation="3"/>
<feComposite in2="hardAlpha" operator="arithmetic" k2="-1" k3="1"/>
<feColorMatrix type="matrix" values="0 0 0 0 0.194152 0 0 0 0 0.183246 0 0 0 0 0.183246 0 0 0 1 0"/>
<feBlend mode="normal" in2="effect4_innerShadow_1_432" result="effect5_innerShadow_1_432"/>
<feColorMatrix in="SourceAlpha" type="matrix" values="0 0 0 0 0 0 0 0 0 0 0 0 0 0 0 0 0 0 127 0" result="hardAlpha"/>
<feOffset dy="35"/>
<feGaussianBlur stdDeviation="4"/>
<feComposite in2="hardAlpha" operator="arithmetic" k2="-1" k3="1"/>
<feColorMatrix type="matrix" values="0 0 0 0 0.161855 0 0 0 0 0.158077 0 0 0 0 0.141706 0 0 0 1 0"/>
<feBlend mode="normal" in2="effect5_innerShadow_1_432" result="effect6_innerShadow_1_432"/>
<feColorMatrix in="SourceAlpha" type="matrix" values="0 0 0 0 0 0 0 0 0 0 0 0 0 0 0 0 0 0 127 0" result="hardAlpha"/>
<feOffset dy="28"/>
<feGaussianBlur stdDeviation="4"/>
<feComposite in2="hardAlpha" operator="arithmetic" k2="-1" k3="1"/>
<feColorMatrix type="matrix" values="0 0 0 0 1 0 0 0 0 1 0 0 0 0 1 0 0 0 1 0"/>
<feBlend mode="normal" in2="effect6_innerShadow_1_432" result="effect7_innerShadow_1_432"/>
<feColorMatrix in="SourceAlpha" type="matrix" values="0 0 0 0 0 0 0 0 0 0 0 0 0 0 0 0 0 0 127 0" result="hardAlpha"/>
<feOffset dx="4" dy="8"/>
<feGaussianBlur stdDeviation="2"/>
<feComposite in2="hardAlpha" operator="arithmetic" k2="-1" k3="1"/>
<feColorMatrix type="matrix" values="0 0 0 0 0 0 0 0 0 0 0 0 0 0 0 0 0 0 1 0"/>
<feBlend mode="normal" in2="effect7_innerShadow_1_432" result="effect8_innerShadow_1_432"/>
<feGaussianBlur stdDeviation="0.5" result="effect9_foregroundBlur_1_432"/>
</filter>
<filter id="filter6_iiii_1_432" x="589" y="201.001" width="40" height="36" filterUnits="userSpaceOnUse" color-interpolation-filters="sRGB">
<feFlood flood-opacity="0" result="BackgroundImageFix"/>
<feBlend mode="normal" in="SourceGraphic" in2="BackgroundImageFix" result="shape"/>
<feColorMatrix in="SourceAlpha" type="matrix" values="0 0 0 0 0 0 0 0 0 0 0 0 0 0 0 0 0 0 127 0" result="hardAlpha"/>
<feOffset/>
<feGaussianBlur stdDeviation="4.5"/>
<feComposite in2="hardAlpha" operator="arithmetic" k2="-1" k3="1"/>
<feColorMatrix type="matrix" values="0 0 0 0 0.0392157 0 0 0 0 0.0392157 0 0 0 0 0.0901961 0 0 0 1 0"/>
<feBlend mode="normal" in2="shape" result="effect1_innerShadow_1_432"/>
<feColorMatrix in="SourceAlpha" type="matrix" values="0 0 0 0 0 0 0 0 0 0 0 0 0 0 0 0 0 0 127 0" result="hardAlpha"/>
<feOffset dx="-6"/>
<feGaussianBlur stdDeviation="2"/>
<feComposite in2="hardAlpha" operator="arithmetic" k2="-1" k3="1"/>
<feColorMatrix type="matrix" values="0 0 0 0 0.0313725 0 0 0 0 0.0588235 0 0 0 0 0.219608 0 0 0 1 0"/>
<feBlend mode="normal" in2="effect1_innerShadow_1_432" result="effect2_innerShadow_1_432"/>
<feColorMatrix in="SourceAlpha" type="matrix" values="0 0 0 0 0 0 0 0 0 0 0 0 0 0 0 0 0 0 127 0" result="hardAlpha"/>
<feOffset dy="4"/>
<feGaussianBlur stdDeviation="2"/>
<feComposite in2="hardAlpha" operator="arithmetic" k2="-1" k3="1"/>
<feColorMatrix type="matrix" values="0 0 0 0 0.0313725 0 0 0 0 0.0588235 0 0 0 0 0.219608 0 0 0 1 0"/>
<feBlend mode="normal" in2="effect2_innerShadow_1_432" result="effect3_innerShadow_1_432"/>
<feColorMatrix in="SourceAlpha" type="matrix" values="0 0 0 0 0 0 0 0 0 0 0 0 0 0 0 0 0 0 127 0" result="hardAlpha"/>
<feOffset dx="6"/>
<feGaussianBlur stdDeviation="2"/>
<feComposite in2="hardAlpha" operator="arithmetic" k2="-1" k3="1"/>
<feColorMatrix type="matrix" values="0 0 0 0 0.0313725 0 0 0 0 0.0588235 0 0 0 0 0.219608 0 0 0 1 0"/>
<feBlend mode="normal" in2="effect3_innerShadow_1_432" result="effect4_innerShadow_1_432"/>
</filter>
<filter id="filter7_d_1_432" x="589" y="197.001" width="40" height="40" filterUnits="userSpaceOnUse" color-interpolation-filters="sRGB">
<feFlood flood-opacity="0" result="BackgroundImageFix"/>
<feColorMatrix in="SourceAlpha" type="matrix" values="0 0 0 0 0 0 0 0 0 0 0 0 0 0 0 0 0 0 127 0" result="hardAlpha"/>
<feOffset/>
<feGaussianBlur stdDeviation="4"/>
<feComposite in2="hardAlpha" operator="out"/>
<feColorMatrix type="matrix" values="0 0 0 0 0 0 0 0 0 0 0 0 0 0 0 0 0 0 1 0"/>
<feBlend mode="normal" in2="BackgroundImageFix" result="effect1_dropShadow_1_432"/>
<feBlend mode="normal" in="SourceGraphic" in2="effect1_dropShadow_1_432" result="shape"/>
</filter>
<filter id="filter8_ii_1_432" x="597" y="205.001" width="24" height="24" filterUnits="userSpaceOnUse" color-interpolation-filters="sRGB">
<feFlood flood-opacity="0" result="BackgroundImageFix"/>
<feBlend mode="normal" in="SourceGraphic" in2="BackgroundImageFix" result="shape"/>
<feColorMatrix in="SourceAlpha" type="matrix" values="0 0 0 0 0 0 0 0 0 0 0 0 0 0 0 0 0 0 127 0" result="hardAlpha"/>
<feOffset/>
<feGaussianBlur stdDeviation="2"/>
<feComposite in2="hardAlpha" operator="arithmetic" k2="-1" k3="1"/>
<feColorMatrix type="matrix" values="0 0 0 0 0.0196078 0 0 0 0 0.0235294 0 0 0 0 0.0784314 0 0 0 1 0"/>
<feBlend mode="normal" in2="shape" result="effect1_innerShadow_1_432"/>
<feColorMatrix in="SourceAlpha" type="matrix" values="0 0 0 0 0 0 0 0 0 0 0 0 0 0 0 0 0 0 127 0" result="hardAlpha"/>
<feOffset/>
<feGaussianBlur stdDeviation="1"/>
<feComposite in2="hardAlpha" operator="arithmetic" k2="-1" k3="1"/>
<feColorMatrix type="matrix" values="0 0 0 0 0 0 0 0 0 0 0 0 0 0 0 0 0 0 1 0"/>
<feBlend mode="normal" in2="effect1_innerShadow_1_432" result="effect2_innerShadow_1_432"/>
</filter>
<linearGradient id="paint0_linear_1_432" x1="69006" y1="55" x2="69006" y2="288855" gradientUnits="userSpaceOnUse">
<stop stop-color="#1B1B1B"/>
<stop offset="0.0130801" stop-color="#3C4A55"/>
<stop offset="0.0627141" stop-color="#373737" stop-opacity="0"/>
<stop offset="1" stop-color="#676767" stop-opacity="0.2"/>
</linearGradient>
<linearGradient id="paint1_linear_1_432" x1="69055.5" y1="54.5" x2="69055.5" y2="288955" gradientUnits="userSpaceOnUse">
<stop stop-color="#3B3B3B"/>
<stop offset="0.0130801" stop-color="#848482"/>
<stop offset="0.0627141" stop-color="#8B8B8B" stop-opacity="0"/>
<stop offset="1" stop-color="#5D5D5B"/>
</linearGradient>
<linearGradient id="paint2_linear_1_432" x1="69105" y1="54" x2="69105" y2="289054" gradientUnits="userSpaceOnUse">
<stop stop-color="#717171"/>
<stop offset="0.0130801" stop-color="#585956"/>
<stop offset="0.0627141" stop-color="#696969" stop-opacity="0"/>
<stop offset="1" stop-color="#717171" stop-opacity="0.2"/>
</linearGradient>
<linearGradient id="paint3_linear_1_432" x1="69154.5" y1="53.5" x2="69154.5" y2="289154" gradientUnits="userSpaceOnUse">
<stop stop-color="#A1A1A1"/>
<stop offset="0.0518306" stop-color="#343434"/>
<stop offset="0.095719" stop-color="#333333" stop-opacity="0"/>
<stop offset="1" stop-color="#B0A898"/>
</linearGradient>
<linearGradient id="paint4_linear_1_432" x1="69006" y1="55" x2="69006" y2="288855" gradientUnits="userSpaceOnUse">
<stop stop-color="#1B1B1B"/>
<stop offset="0.0130801" stop-color="#3C4A55"/>
<stop offset="0.0627141" stop-color="#1D2C36" stop-opacity="0"/>
<stop offset="1" stop-color="#676767" stop-opacity="0.2"/>
</linearGradient>
<linearGradient id="paint5_linear_1_432" x1="69055.5" y1="54.5" x2="69055.5" y2="288955" gradientUnits="userSpaceOnUse">
<stop stop-color="#3B3B3B"/>
<stop offset="0.0130801" stop-color="#848482"/>
<stop offset="0.0627141" stop-color="#848482" stop-opacity="0"/>
<stop offset="1" stop-color="#5F5F5F"/>
</linearGradient>
<linearGradient id="paint6_linear_1_432" x1="69105" y1="54" x2="69105" y2="289054" gradientUnits="userSpaceOnUse">
<stop stop-color="#717171"/>
<stop offset="0.0130801" stop-color="#585956"/>
<stop offset="0.0627141" stop-color="#6A6A6A" stop-opacity="0"/>
<stop offset="1" stop-color="#717171" stop-opacity="0.2"/>
</linearGradient>
<linearGradient id="paint7_linear_1_432" x1="69154.5" y1="53.5" x2="69154.5" y2="289154" gradientUnits="userSpaceOnUse">
<stop stop-color="#A1A1A1"/>
<stop offset="0.0518306" stop-color="#343434"/>
<stop offset="0.095719" stop-color="#343434" stop-opacity="0"/>
<stop offset="1" stop-color="#B0A898"/>
</linearGradient>
<linearGradient id="paint8_linear_1_432" x1="67421.5" y1="71.5" x2="67421.5" y2="285372" gradientUnits="userSpaceOnUse">
<stop stop-color="#505050"/>
<stop offset="0.0706596" stop-color="#474747"/>
<stop offset="0.18191" stop-color="#4F4F4F"/>
<stop offset="0.844989" stop-color="#4F4F4F"/>
<stop offset="0.945795" stop-color="#4A4A4A"/>
<stop offset="0.966758" stop-color="#3B3A3B"/>
<stop offset="1" stop-color="#4C4C4A"/>
</linearGradient>
<linearGradient id="paint9_linear_1_432" x1="67223.5" y1="73.5" x2="67223.5" y2="284974" gradientUnits="userSpaceOnUse">
<stop stop-color="#505050"/>
<stop offset="0.0706596" stop-color="#474747"/>
<stop offset="0.18191" stop-color="#4F4F4F"/>
<stop offset="0.844989" stop-color="#4F4F4F"/>
<stop offset="0.945795" stop-color="#4A4A4A"/>
<stop offset="0.966758" stop-color="#3B3A3B"/>
<stop offset="1" stop-color="#4C4C4A"/>
</linearGradient>
<linearGradient id="paint10_linear_1_432" x1="1418" y1="354" x2="1438" y2="354" gradientUnits="userSpaceOnUse">
<stop stop-color="#262626"/>
<stop offset="0.0829898" stop-color="#636566"/>
<stop offset="0.139448" stop-color="#636566"/>
<stop offset="0.267605" stop-color="#46484A"/>
<stop offset="0.339988" stop-color="#313335"/>
<stop offset="0.534272" stop-color="#282B2B"/>
<stop offset="0.574437" stop-color="#191B1D"/>
<stop offset="0.766064" stop-color="#1E2022"/>
<stop offset="0.867478" stop-color="#3A3C3D"/>
<stop offset="0.929293" stop-color="#5C5D5E"/>
<stop offset="1" stop-color="#646464" stop-opacity="0.1"/>
</linearGradient>
<linearGradient id="paint11_linear_1_432" x1="1418" y1="2642" x2="1438" y2="2642" gradientUnits="userSpaceOnUse">
<stop stop-color="#262626"/>
<stop offset="0.0829898" stop-color="#636566"/>
<stop offset="0.139448" stop-color="#636566"/>
<stop offset="0.267605" stop-color="#46484A"/>
<stop offset="0.339988" stop-color="#313335"/>
<stop offset="0.534272" stop-color="#282B2B"/>
<stop offset="0.574437" stop-color="#191B1D"/>
<stop offset="0.766064" stop-color="#1E2022"/>
<stop offset="0.867478" stop-color="#3A3C3D"/>
<stop offset="0.929293" stop-color="#5C5D5E"/>
<stop offset="1" stop-color="#646464" stop-opacity="0.1"/>
</linearGradient>
<linearGradient id="paint12_linear_1_432" x1="75" y1="354" x2="55" y2="354" gradientUnits="userSpaceOnUse">
<stop stop-color="#262626"/>
<stop offset="0.0829898" stop-color="#636566"/>
<stop offset="0.139448" stop-color="#636566"/>
<stop offset="0.267605" stop-color="#46484A"/>
<stop offset="0.339988" stop-color="#313335"/>
<stop offset="0.534272" stop-color="#282B2B"/>
<stop offset="0.574437" stop-color="#191B1D"/>
<stop offset="0.766064" stop-color="#1E2022"/>
<stop offset="0.867478" stop-color="#3A3C3D"/>
<stop offset="0.929293" stop-color="#5C5D5E"/>
<stop offset="1" stop-color="#646464" stop-opacity="0.1"/>
</linearGradient>
<linearGradient id="paint13_linear_1_432" x1="75" y1="2642" x2="55" y2="2642" gradientUnits="userSpaceOnUse">
<stop stop-color="#262626"/>
<stop offset="0.0829898" stop-color="#636566"/>
<stop offset="0.139448" stop-color="#636566"/>
<stop offset="0.267605" stop-color="#46484A"/>
<stop offset="0.339988" stop-color="#313335"/>
<stop offset="0.534272" stop-color="#282B2B"/>
<stop offset="0.574437" stop-color="#191B1D"/>
<stop offset="0.766064" stop-color="#1E2022"/>
<stop offset="0.867478" stop-color="#3A3C3D"/>
<stop offset="0.929293" stop-color="#5C5D5E"/>
<stop offset="1" stop-color="#646464" stop-opacity="0.1"/>
</linearGradient>
<linearGradient id="paint14_linear_1_432" x1="609" y1="201.001" x2="609" y2="233.001" gradientUnits="userSpaceOnUse">
<stop stop-color="#19283B"/>
<stop offset="0.0159865" stop-color="#2D415D"/>
<stop offset="0.0375531" stop-color="#51667D"/>
<stop offset="0.0519299" stop-color="#3B5975"/>
<stop offset="0.0743013" stop-color="#2E4D68"/>
<stop offset="0.100295" stop-color="#213E57"/>
<stop offset="0.117656" stop-color="#10314A"/>
<stop offset="0.900612" stop-color="#280D58"/>
<stop offset="0.927676" stop-color="#2E1751"/>
<stop offset="0.973593" stop-color="#231538"/>
<stop offset="1" stop-color="#130E1F"/>
</linearGradient>
<radialGradient id="paint15_radial_1_432" cx="0" cy="0" r="1" gradientUnits="userSpaceOnUse" gradientTransform="translate(609.5 205.001) rotate(90) scale(10.5)">
<stop stop-color="#414A67"/>
<stop offset="0.40532" stop-color="#33366F"/>
<stop offset="0.722658" stop-color="#18184D"/>
<stop offset="1" stop-color="#030517"/>
</radialGradient>
<radialGradient id="paint16_radial_1_432" cx="0" cy="0" r="1" gradientUnits="userSpaceOnUse" gradientTransform="translate(609 227.501) rotate(-90) scale(11.5 12.3912)">
<stop stop-color="#1E3A44"/>
<stop offset="0.0866257" stop-color="#1C3A43"/>
<stop offset="0.183254" stop-color="#0C3943"/>
<stop offset="0.328671" stop-color="#01313D"/>
<stop offset="0.488717" stop-color="#002433"/>
<stop offset="0.636798" stop-color="#001F35" stop-opacity="0.4"/>
<stop offset="1" stop-color="#02081F" stop-opacity="0"/>
</radialGradient>
<radialGradient id="paint17_radial_1_432" cx="0" cy="0" r="1" gradientUnits="userSpaceOnUse" gradientTransform="translate(609 209.501) rotate(90) scale(7.5 24.147)">
<stop stop-color="#340F54"/>
<stop offset="0.252857" stop-color="#340F54" stop-opacity="0.6"/>
<stop offset="0.50265" stop-color="#071280" stop-opacity="0.2"/>
<stop offset="1" stop-color="#071280" stop-opacity="0"/>
</radialGradient>
<radialGradient id="paint18_radial_1_432" cx="0" cy="0" r="1" gradientUnits="userSpaceOnUse" gradientTransform="translate(609 227.501) rotate(-90) scale(11.5 12.3912)">
<stop stop-color="#1E3A44"/>
<stop offset="0.0866257" stop-color="#1C3A43"/>
<stop offset="0.183254" stop-color="#0C3943"/>
<stop offset="0.328671" stop-color="#01313D"/>
<stop offset="0.488717" stop-color="#002433"/>
<stop offset="0.636798" stop-color="#001F35" stop-opacity="0.4"/>
<stop offset="1" stop-color="#02081F" stop-opacity="0"/>
</radialGradient>
</defs>
</svg>
