<svg width="501" height="364" viewBox="0 0 501 364" fill="none" xmlns="http://www.w3.org/2000/svg">
<path d="M428.465 0C468.23 0 500.465 32.2355 500.465 72V104C500.465 143.764 468.23 176 428.465 176H72.0002C32.2358 176 0.000244141 143.764 0.000244141 104V72C0.000246718 32.2355 32.2357 0 72.0002 0H428.465ZM147.646 46.5459C140.079 46.5459 133.671 48.2426 128.42 51.6367C123.17 55.0309 119.155 59.6208 116.375 65.4062C113.673 71.1146 112.322 77.5556 112.322 84.7295V92.1348C112.322 99.9259 113.711 106.676 116.49 112.385C119.347 118.093 123.324 122.529 128.42 125.691C133.516 128.777 139.5 130.319 146.371 130.319C152.394 130.319 157.259 129.124 160.965 126.732C164.671 124.341 167.528 120.947 169.535 116.55V128.931H181.464V87.2754H142.897V98.1523H169.188V99.0781C169.188 102.009 168.415 104.979 166.871 107.987C165.404 110.919 163.088 113.387 159.922 115.393C156.834 117.321 152.858 118.285 147.993 118.285C140.349 118.285 134.635 115.971 130.852 111.343C127.146 106.714 125.293 100.466 125.293 92.5977V84.2666C125.293 76.707 127.146 70.5356 130.852 65.7529C134.635 60.8932 140.156 58.4639 147.414 58.4639C153.823 58.4639 158.648 60.0064 161.891 63.0918C165.211 66.1774 167.45 70.0347 168.609 74.6631L180.074 70.2656C179.148 66.0231 177.449 62.1274 174.979 58.5791C172.508 54.9536 169.033 52.0613 164.555 49.9014C160.154 47.6643 154.518 46.5459 147.646 46.5459ZM215.688 72.2334C209.434 72.2335 204.299 73.7759 200.284 76.8613C196.347 79.9469 193.876 83.7271 192.872 88.2012L203.643 91.3252C204.338 88.5482 205.728 86.3885 207.813 84.8457C209.975 83.2259 212.599 82.4161 215.688 82.416C218.699 82.416 221.209 83.1097 223.216 84.498C225.301 85.8865 226.343 87.8539 226.343 90.3994C226.343 93.1763 224.683 94.7578 221.364 95.1436L209.55 96.7637C197.659 98.3065 191.714 103.938 191.714 113.657C191.714 118.671 193.335 122.721 196.578 125.807C199.898 128.815 204.261 130.319 209.665 130.319C214.066 130.319 217.734 129.278 220.668 127.195C223.602 125.113 225.649 122.258 226.807 118.633V128.931H238.273V92.5977C238.273 85.8096 236.303 80.7183 232.365 77.3242C228.428 73.9302 222.868 72.2334 215.688 72.2334ZM358.545 72.2334C353.372 72.2334 348.778 73.4672 344.763 75.9355C340.825 78.404 337.736 81.7602 335.497 86.0029C333.258 90.1684 332.139 94.8738 332.139 100.119V102.317C332.139 108.026 333.258 113.001 335.497 117.244C337.736 121.41 340.825 124.65 344.763 126.964C348.778 129.201 353.411 130.319 358.661 130.319C364.838 130.319 369.973 128.969 374.065 126.27C378.234 123.57 381.284 119.751 383.214 114.814L372.906 110.302C370.359 116.55 365.687 119.674 358.893 119.674C354.415 119.674 350.863 118.286 348.238 115.509C345.612 112.655 344.222 108.643 344.068 103.475H384.141V98.6152C384.141 93.7554 383.176 89.358 381.245 85.4238C379.315 81.4127 376.458 78.2116 372.675 75.8203C368.892 73.429 364.182 72.2334 358.545 72.2334ZM306.281 72.2334C302.807 72.2334 299.641 73.0432 296.784 74.6631C293.928 76.2058 291.766 78.5201 290.299 81.6055C289.295 78.8285 287.635 76.5916 285.319 74.8945C283.079 73.1203 280.107 72.2334 276.401 72.2334C273.158 72.2334 270.262 72.966 267.714 74.4316C265.166 75.8973 263.159 78.0961 261.692 81.0273V73.6221H249.531V128.931H261.692V95.0283C261.692 92.9455 261.962 91.2479 262.502 89.9365C263.043 88.5481 263.777 87.3915 264.703 86.4658C266.865 84.0745 269.413 82.8789 272.347 82.8789C274.818 82.8789 276.787 83.6115 278.254 85.0771C279.721 86.5428 280.454 88.7799 280.454 91.7881V128.931H292.615V95.0283C292.615 92.9455 292.886 91.2479 293.426 89.9365C293.966 88.5481 294.662 87.3914 295.511 86.4658C297.673 84.0745 300.221 82.8789 303.155 82.8789C305.702 82.8789 307.71 83.6115 309.177 85.0771C310.644 86.5428 311.377 88.7797 311.377 91.7881V128.931H323.423V90.9785C323.423 84.9616 321.956 80.3327 319.022 77.0928C316.088 73.8529 311.841 72.2334 306.281 72.2334ZM226.343 104.863C226.343 109.26 224.992 112.924 222.289 115.855C219.664 118.71 216.151 120.137 211.75 120.137C209.125 120.137 207.079 119.52 205.612 118.286C204.145 117.052 203.411 115.393 203.411 113.311C203.411 108.759 206.114 106.137 211.519 105.442L220.089 104.517C221.402 104.362 222.56 104.131 223.564 103.822C224.645 103.514 225.571 103.012 226.343 102.317V104.863ZM358.545 82.2998C362.792 82.2998 366.035 83.4184 368.274 85.6553C370.513 87.8923 371.826 90.8627 372.212 94.5654H344.415C345.187 90.6313 346.848 87.6228 349.396 85.54C351.944 83.3802 354.993 82.2998 358.545 82.2998Z" fill="white"/>
<path d="M465.079 363.999C443.421 363.999 430.272 353.17 426.985 338.087L442.067 332.092C444.775 342.921 453.09 349.302 464.498 349.302C477.261 349.302 484.996 343.695 484.996 335.38C484.996 327.065 477.648 323.778 467.399 322.231L456.764 320.684C441.294 318.363 429.885 309.662 429.885 293.612C429.885 277.369 444.388 266.927 463.532 266.927C481.322 266.927 493.697 274.275 498.532 288.197L484.996 294.965C482.095 285.49 474.36 281.236 463.532 281.236C453.283 281.236 444.968 285.877 444.968 293.999C444.968 301.733 451.156 305.021 462.371 306.761L473.393 308.501C487.896 310.822 500.465 317.783 500.465 334.413C500.465 352.396 487.123 363.999 465.079 363.999Z" fill="white"/>
<path d="M322.861 361.679L297.916 269.248H313.772L331.949 343.889L351.286 269.248H369.849L389.186 343.889L407.363 269.248H423.22L398.275 361.679H379.905L360.568 286.458L341.231 361.679H322.861Z" fill="white"/>
<path d="M251.812 363.999C226.867 363.999 208.497 346.595 208.497 317.59V313.336C208.497 284.33 226.867 266.927 251.812 266.927C276.757 266.927 295.127 284.33 295.127 313.336V317.59C295.127 346.595 276.757 363.999 251.812 363.999ZM251.812 349.302C268.635 349.302 279.27 338.087 279.27 317.203V313.722C279.27 292.838 268.635 281.623 251.812 281.623C234.989 281.623 224.353 292.838 224.353 313.722V317.203C224.353 338.087 234.989 349.302 251.812 349.302Z" fill="white"/>
<path d="M119.08 361.678V226.319H134.936V283.944C140.737 273.115 150.793 266.927 164.135 266.927C184.632 266.927 196.041 280.076 196.041 299.993V361.678H180.185V300.767C180.185 288.004 172.45 281.623 161.041 281.623C153.306 281.623 147.505 284.524 142.091 290.132C137.063 295.352 134.936 300.767 134.936 308.888V361.678H119.08Z" fill="white"/>
<path d="M52.4033 364C20.1105 364 3.8674 344.856 0 319.331L16.2431 314.304C19.337 335.575 30.1657 348.144 52.5967 348.144H59.1713C77.1547 348.144 88.3702 338.669 88.3702 323.779C88.3702 309.276 77.5414 302.508 56.4641 299.608L45.0553 298.061C24.7514 295.354 9.0884 282.204 9.0884 261.514C9.0884 238.696 24.9448 224 51.6298 224C75.221 224 87.7901 238.503 87.7901 250.105C87.7901 261.514 82.3757 272.536 61.4917 272.536H55.1105C38.0939 272.536 29.5856 263.448 28.0387 251.459C26.6851 254.166 26.105 257.453 26.105 260.934C26.105 274.083 35.3867 280.464 48.9227 282.398L62.4586 284.331C88.3702 288.006 105.387 298.641 105.387 323.392C105.387 350.077 83.9227 364 58.9779 364H52.4033ZM53.1768 258.42H59.558C67.2928 258.42 70.7735 255.326 70.7735 249.912C70.7735 244.11 64.5856 239.856 52.21 239.856C44.0884 239.856 38.2873 242.95 38.2873 249.138C38.2873 253.586 43.5083 258.42 53.1768 258.42Z" fill="white"/>
</svg>
