<svg width="288" height="192" viewBox="0 0 288 192" fill="none" xmlns="http://www.w3.org/2000/svg">
<path d="M206.514 0.5C182.967 0.5 164.56 18.2508 147.897 40.7997C125 11.6191 105.85 0.5 82.9339 0.5C36.2131 0.5 0.415771 61.3565 0.415771 125.77C0.415771 166.077 19.8988 191.5 52.5325 191.5C76.0201 191.5 92.9125 180.417 122.943 127.877C122.943 127.877 135.461 105.752 144.073 90.5103C147.09 95.3869 150.269 100.642 153.607 106.274L167.689 129.985C195.121 175.929 210.405 191.5 238.1 191.5C269.891 191.5 287.584 165.73 287.584 124.584C287.584 57.1414 250.98 0.5 206.514 0.5ZM100.043 113.651C75.6955 151.851 67.2726 160.413 53.717 160.413C39.7665 160.413 31.4752 148.155 31.4752 126.297C31.4752 79.5345 54.7698 31.7186 82.5391 31.7186C97.5769 31.7186 110.144 40.411 129.393 67.992C111.115 96.052 100.043 113.651 100.043 113.651ZM191.934 108.842L175.097 80.7367C170.54 73.3198 166.161 66.4928 161.96 60.2559C177.135 36.8135 189.652 25.1324 204.54 25.1324C235.468 25.1324 260.21 70.709 260.21 126.692C260.21 148.031 253.227 160.413 238.758 160.413C224.89 160.413 218.265 151.246 191.934 108.842Z" fill="white"/>
</svg>
