<svg width="502" height="140" viewBox="0 0 502 140" fill="none" xmlns="http://www.w3.org/2000/svg">
<path d="M465.846 139.999C444.188 139.999 431.039 129.17 427.752 114.087L442.835 108.092C445.542 118.921 453.857 125.302 465.266 125.302C478.028 125.302 485.763 119.695 485.763 111.38C485.763 103.065 478.415 99.7776 468.166 98.2306L457.531 96.6837C442.061 94.3632 430.653 85.6616 430.653 69.6118C430.653 53.3687 445.155 42.9268 464.299 42.9268C482.089 42.9268 494.465 50.2748 499.299 64.1975L485.763 70.9654C482.862 61.4903 475.128 57.2361 464.299 57.2361C454.05 57.2361 445.735 61.877 445.735 69.9986C445.735 77.7334 451.923 81.0207 463.139 82.761L474.161 84.5013C488.664 86.8218 501.233 93.7831 501.233 110.413C501.233 128.396 487.89 139.999 465.846 139.999Z" fill="white"/>
<path d="M323.628 137.679L298.683 45.2483H314.539L332.716 119.889L352.053 45.2483H370.617L389.954 119.889L408.131 45.2483H423.987L399.042 137.679H380.672L361.335 62.4582L341.998 137.679H323.628Z" fill="white"/>
<path d="M252.579 139.999C227.634 139.999 209.264 122.595 209.264 93.5897V89.3356C209.264 60.3301 227.634 42.9268 252.579 42.9268C277.524 42.9268 295.894 60.3301 295.894 89.3356V93.5897C295.894 122.595 277.524 139.999 252.579 139.999ZM252.579 125.302C269.402 125.302 280.038 114.087 280.038 93.203V89.7223C280.038 68.8384 269.402 57.6229 252.579 57.6229C235.756 57.6229 225.121 68.8384 225.121 89.7223V93.203C225.121 114.087 235.756 125.302 252.579 125.302Z" fill="white"/>
<path d="M119.847 137.678V2.31934H135.704V59.9437C141.505 49.1149 151.56 42.9271 164.902 42.9271C185.4 42.9271 196.808 56.0763 196.808 75.9934V137.678H180.952V76.7669C180.952 64.0044 173.217 57.6232 161.808 57.6232C154.074 57.6232 148.273 60.5238 142.858 66.1315C137.831 71.3525 135.704 76.7669 135.704 84.8884V137.678H119.847Z" fill="white"/>
<path d="M53.1707 140C20.8778 140 4.63474 120.856 0.767334 95.3315L17.0104 90.3039C20.1044 111.575 30.9331 124.144 53.364 124.144H59.9386C77.922 124.144 89.1375 114.669 89.1375 99.779C89.1375 85.2762 78.3088 78.5083 57.2314 75.6077L45.8226 74.0608C25.5187 71.3536 9.85573 58.2044 9.85573 37.5138C9.85573 14.6961 25.7121 0 52.3972 0C75.9883 0 88.5574 14.5028 88.5574 26.105C88.5574 37.5138 83.143 48.5359 62.2591 48.5359H55.8778C38.8613 48.5359 30.353 39.4475 28.806 27.4586C27.4524 30.1657 26.8723 33.453 26.8723 36.9337C26.8723 50.0829 36.1541 56.4641 49.69 58.3978L63.2259 60.3315C89.1375 64.0055 106.154 74.6409 106.154 99.3923C106.154 126.077 84.69 140 59.7452 140H53.1707ZM53.9441 34.4199H60.3254C68.0602 34.4199 71.5408 31.326 71.5408 25.9116C71.5408 20.1105 65.353 15.8563 52.9773 15.8563C44.8557 15.8563 39.0546 18.9503 39.0546 25.1381C39.0546 29.5856 44.2756 34.4199 53.9441 34.4199Z" fill="white"/>
</svg>
